<svg width="64" height="64" viewBox="0 0 64 64" fill="none" xmlns="http://www.w3.org/2000/svg">
<circle cx="32" cy="32" r="32" fill="#7EC980"/>
<path d="M19.0635 49.2524C19.4905 49.2524 19.9389 49.1855 20.195 49.1186L24.8067 48.0479C27.6676 50.6354 31.1263 51.907 35.1829 51.9293C35.9942 52.5092 37.5528 53 38.8979 53C40.0081 53 41.7588 52.9554 43.4668 52.8215C45.5377 52.6877 47.1177 50.8808 47.1177 48.6947C47.1177 48.3379 47.075 47.8694 46.9255 47.4679C48.1212 46.4864 48.8684 45.0141 48.8684 43.4527C48.8684 42.6942 48.719 42.0027 48.42 41.2666C49.4876 40.0844 50 38.8575 50 37.5413C50 36.4037 49.637 35.2661 48.9111 34.3069C49.4022 33.3923 49.6797 32.4108 49.6797 31.3847C49.6797 28.6409 47.4379 26.3656 44.7051 26.3656C42.7196 26.3656 41.652 26.4102 39.7946 26.4772C38.1079 26.5441 37.1685 26.0087 37.1685 25.0718C37.1685 23.555 37.6809 22.1719 37.6809 20.3651C37.6809 15.5691 34.8626 12 31.0623 12C28.6711 12 26.9844 13.6507 26.9844 16.0822C26.9844 17.9336 27.5609 19.6513 27.5609 21.7035C27.5609 24.5142 24.3797 26.8117 22.7144 29.154L19.2343 28.8863C17.5049 28.7524 16.0744 29.444 15.1777 30.8493C13.8327 32.9684 13 35.8906 13 38.7905C13 44.6126 15.6688 49.2524 19.0635 49.2524ZM19.1061 45.7503C17.7611 45.7503 16.352 42.2927 16.352 38.8352C16.352 36.5821 16.9711 34.3738 18.0173 32.8569C18.3162 32.4331 18.5084 32.4331 18.85 32.4331L21.2625 32.5223C21.6682 33.1915 22.3514 33.5261 22.9706 33.5261C23.5897 33.5261 24.1875 33.1915 24.5078 32.6784C26.5574 29.2655 30.9129 27.0571 30.9129 21.4135C30.9129 19.4282 30.3577 17.2198 30.3577 16.3944C30.3577 15.7699 30.5499 15.5022 31.1263 15.5022C33.1119 15.5022 34.3503 17.2867 34.3503 20.2758C34.3503 22.0381 33.8165 23.6665 33.8165 25.0718C33.8165 25.8302 33.9873 26.7894 34.5424 27.6148C33.4536 28.574 32.9198 29.9793 32.9198 31.6746C32.9198 32.8346 33.24 33.9946 34.03 34.9091C33.3254 35.8237 33.0052 36.6491 33.0052 37.6306C33.0052 38.8798 33.4322 39.9951 34.2649 40.9097C33.7524 41.8243 33.603 42.6719 33.603 43.5196C33.603 44.5457 33.8805 45.5718 34.4357 46.3749C34.0513 46.8879 33.9019 47.5795 33.9019 48.0702C33.9019 48.1148 33.8805 48.1817 33.8805 48.2933C29.8454 47.9363 27.6249 46.4195 25.6607 43.6757C25.2551 43.118 24.7853 42.895 24.2516 42.895C23.2695 42.895 22.4582 43.6757 22.4582 44.6796C22.4582 44.8803 22.4582 45.0587 22.4368 45.081L19.5759 45.7057C19.4051 45.728 19.1915 45.7503 19.1061 45.7503ZM38.3641 33.2138C36.9123 33.2138 36.2077 32.7007 36.2077 31.5631C36.2077 30.5593 36.955 30.1355 38.7698 29.9793C40.1148 29.8901 42.1431 29.8455 44.8973 29.8455C45.6659 29.8455 46.3278 30.5816 46.3278 31.3624C46.3278 32.1208 45.7726 32.8123 45.004 32.8792C42.7409 33.1023 40.6699 33.2138 38.3641 33.2138ZM37.2539 38.7013C36.6988 38.6344 36.2931 38.1437 36.3145 37.519C36.3358 36.8945 36.6988 36.5152 37.3393 36.5375C39.8373 36.5821 42.3993 36.5375 45.4524 36.2476C46.0715 36.1807 46.648 36.8498 46.648 37.5636C46.648 38.2551 46.1356 38.8575 45.4951 38.8798C42.3139 39.0136 40.3924 39.0136 37.2539 38.7013ZM38.1933 44.8357C37.4247 44.7465 36.8909 44.2111 36.8909 43.3857C36.8909 42.6496 37.5101 42.0919 38.172 42.1365C40.5632 42.3373 41.7161 42.315 44.3635 42.2258C45.0254 42.2035 45.5164 42.7835 45.5164 43.5419C45.5164 44.2557 45.0254 44.7465 44.2995 44.7911C41.6947 44.9918 39.3462 44.9472 38.1933 44.8357ZM38.3427 49.5425C37.6168 49.4978 37.2112 49.2524 37.2112 48.7394C37.2112 48.4048 37.4674 48.1817 37.7876 48.204C39.88 48.2933 41.0969 48.3156 43.1038 48.2263C43.4882 48.204 43.7657 48.4494 43.7657 48.784C43.7657 49.1186 43.6163 49.3194 43.2747 49.3863C42.015 49.5648 39.4316 49.5871 38.3427 49.5425Z" fill="white"/>
</svg>
