<svg width="64" height="64" viewBox="0 0 64 64" fill="none" xmlns="http://www.w3.org/2000/svg">
<circle cx="32" cy="32" r="32" fill="#FAEAB3"/>
<path d="M18.625 30C17.7966 30 17.125 30.6716 17.125 31.5C17.125 32.3284 17.7966 33 18.625 33L18.625 30ZM46.375 33C47.2034 33 47.875 32.3284 47.875 31.5C47.875 30.6716 47.2034 30 46.375 30L46.375 33ZM18.625 33L46.375 33L46.375 30L18.625 30L18.625 33Z" fill="#545454"/>
<path d="M39.7273 22.731C39.1415 22.1453 38.1918 22.1453 37.606 22.731C37.0202 23.3168 37.0202 24.2666 37.606 24.8524L39.7273 22.731ZM46.375 31.5L47.4357 32.5607C48.0214 31.9749 48.0214 31.0252 47.4357 30.4394L46.375 31.5ZM37.606 38.1477C37.0202 38.7335 37.0202 39.6832 37.606 40.269C38.1918 40.8548 39.1415 40.8548 39.7273 40.269L37.606 38.1477ZM37.606 24.8524L45.3143 32.5607L47.4357 30.4394L39.7273 22.731L37.606 24.8524ZM45.3143 30.4394L37.606 38.1477L39.7273 40.269L47.4357 32.5607L45.3143 30.4394Z" fill="#545454"/>
</svg>
