<svg width="64" height="64" viewBox="0 0 64 64" fill="none" xmlns="http://www.w3.org/2000/svg">
<circle cx="32" cy="32" r="32" transform="rotate(-180 32 32)" fill="#F0515D"/>
<path d="M44.9365 14.7475C44.5095 14.7475 44.0611 14.8145 43.805 14.8814L39.1933 15.9521C36.3324 13.3646 32.8737 12.093 28.8171 12.0707C28.0058 11.4908 26.4472 11 25.1021 11C23.9919 11 22.2412 11.0446 20.5332 11.1785C18.4623 11.3123 16.8823 13.1192 16.8823 15.3053C16.8823 15.6621 16.925 16.1306 17.0745 16.5321C15.8788 17.5136 15.1316 18.9859 15.1316 20.5473C15.1316 21.3058 15.281 21.9973 15.58 22.7334C14.5124 23.9156 14 25.1425 14 26.4587C14 27.5963 14.363 28.7339 15.0889 29.6931C14.5978 30.6077 14.3203 31.5892 14.3203 32.6153C14.3203 35.3591 16.5621 37.6344 19.2949 37.6344C21.2804 37.6344 22.348 37.5898 24.2054 37.5228C25.8921 37.4559 26.8315 37.9913 26.8315 38.9282C26.8315 40.445 26.3191 41.8281 26.3191 43.6349C26.3191 48.4309 29.1374 52 32.9377 52C35.3289 52 37.0156 50.3493 37.0156 47.9178C37.0156 46.0664 36.4391 44.3487 36.4391 42.2965C36.4391 39.4858 39.6203 37.1883 41.2856 34.846L44.7657 35.1137C46.4951 35.2476 47.9256 34.556 48.8223 33.1507C50.1673 31.0316 51 28.1094 51 25.2095C51 19.3874 48.3312 14.7475 44.9365 14.7475ZM44.8939 18.2497C46.2389 18.2497 47.648 21.7073 47.648 25.1648C47.648 27.4179 47.0289 29.6262 45.9827 31.1431C45.6838 31.5669 45.4916 31.5669 45.15 31.5669L42.7375 31.4777C42.3318 30.8085 41.6486 30.4739 41.0295 30.4739C40.4103 30.4739 39.8125 30.8085 39.4922 31.3216C37.4426 34.7345 33.0871 36.9429 33.0871 42.5865C33.0871 44.5718 33.6423 46.7802 33.6423 47.6055C33.6423 48.2301 33.4501 48.4978 32.8737 48.4978C30.8881 48.4978 29.6497 46.7133 29.6497 43.7242C29.6497 41.9619 30.1835 40.3335 30.1835 38.9282C30.1835 38.1698 30.0127 37.2106 29.4576 36.3852C30.5465 35.426 31.0802 34.0207 31.0802 32.3254C31.0802 31.1654 30.76 30.0054 29.97 29.0909C30.6746 28.1763 30.9948 27.3509 30.9948 26.3694C30.9948 25.1202 30.5678 24.0049 29.7351 23.0903C30.2476 22.1757 30.397 21.3281 30.397 20.4804C30.397 19.4543 30.1195 18.4282 29.5643 17.6251C29.9487 17.1121 30.0981 16.4205 30.0981 15.9298C30.0981 15.8852 30.1195 15.8183 30.1195 15.7067C34.1546 16.0637 36.3751 17.5805 38.3393 20.3243C38.7449 20.882 39.2147 21.105 39.7484 21.105C40.7305 21.105 41.5418 20.3243 41.5418 19.3204C41.5418 19.1197 41.5418 18.9413 41.5632 18.919L44.4241 18.2943C44.5949 18.272 44.8085 18.2497 44.8939 18.2497ZM25.6359 30.7862C27.0877 30.7862 27.7923 31.2993 27.7923 32.4369C27.7923 33.4407 27.045 33.8645 25.2302 34.0207C23.8852 34.1099 21.8569 34.1545 19.1027 34.1545C18.3341 34.1545 17.6722 33.4184 17.6722 32.6376C17.6722 31.8792 18.2274 31.1877 18.996 31.1208C21.2591 30.8977 23.3301 30.7862 25.6359 30.7862ZM26.7461 25.2987C27.3012 25.3656 27.7069 25.8563 27.6855 26.481C27.6642 27.1055 27.3012 27.4848 26.6607 27.4625C24.1627 27.4179 21.6007 27.4625 18.5476 27.7524C17.9285 27.8193 17.352 27.1502 17.352 26.4364C17.352 25.7449 17.8644 25.1425 18.5049 25.1202C21.6861 24.9864 23.6076 24.9864 26.7461 25.2987ZM25.8067 19.1643C26.5753 19.2535 27.1091 19.7889 27.1091 20.6143C27.1091 21.3504 26.4899 21.9081 25.828 21.8635C23.4368 21.6627 22.2839 21.685 19.6365 21.7742C18.9746 21.7965 18.4836 21.2165 18.4836 20.4581C18.4836 19.7443 18.9746 19.2535 19.7005 19.2089C22.3053 19.0082 24.6538 19.0528 25.8067 19.1643ZM25.6573 14.4575C26.3832 14.5022 26.7888 14.7475 26.7888 15.2606C26.7888 15.5952 26.5326 15.8183 26.2124 15.796C24.12 15.7067 22.9031 15.6844 20.8962 15.7737C20.5118 15.796 20.2343 15.5506 20.2343 15.216C20.2343 14.8814 20.3837 14.6806 20.7254 14.6137C21.985 14.4352 24.5684 14.4129 25.6573 14.4575Z" fill="white"/>
</svg>
