<svg width="64" height="64" viewBox="0 0 64 64" fill="none" xmlns="http://www.w3.org/2000/svg">
<circle cx="32" cy="32" r="32" transform="rotate(-180 32 32)" fill="#FAEAB3"/>
<path d="M45.375 34C46.2034 34 46.875 33.3284 46.875 32.5C46.875 31.6716 46.2034 31 45.375 31L45.375 34ZM17.625 31C16.7966 31 16.125 31.6716 16.125 32.5C16.125 33.3284 16.7966 34 17.625 34L17.625 31ZM45.375 31L17.625 31L17.625 34L45.375 34L45.375 31Z" fill="#545454"/>
<path d="M24.2727 41.269C24.8585 41.8547 25.8082 41.8547 26.394 41.269C26.9798 40.6832 26.9798 39.7334 26.394 39.1476L24.2727 41.269ZM17.625 32.5L16.5643 31.4393C15.9786 32.0251 15.9786 32.9748 16.5643 33.5606L17.625 32.5ZM26.394 25.8523C26.9798 25.2665 26.9798 24.3168 26.394 23.731C25.8082 23.1452 24.8585 23.1452 24.2727 23.731L26.394 25.8523ZM26.394 39.1476L18.6857 31.4393L16.5643 33.5606L24.2727 41.269L26.394 39.1476ZM18.6857 33.5606L26.394 25.8523L24.2727 23.731L16.5643 31.4393L18.6857 33.5606Z" fill="#545454"/>
</svg>
