<svg width="37" height="38" viewBox="0 0 37 38" fill="none" xmlns="http://www.w3.org/2000/svg">
<path d="M32.375 20.5C33.2034 20.5 33.875 19.8284 33.875 19C33.875 18.1716 33.2034 17.5 32.375 17.5V20.5ZM4.625 17.5C3.79657 17.5 3.125 18.1716 3.125 19C3.125 19.8284 3.79657 20.5 4.625 20.5L4.625 17.5ZM32.375 17.5L4.625 17.5L4.625 20.5L32.375 20.5V17.5Z" fill="#050505"/>
<path d="M11.2727 27.769C11.8585 28.3548 12.8082 28.3548 13.394 27.769C13.9798 27.1832 13.9798 26.2334 13.394 25.6477L11.2727 27.769ZM4.625 19L3.56434 17.9393C2.97855 18.5251 2.97855 19.4749 3.56434 20.0606L4.625 19ZM13.394 12.3523C13.9798 11.7665 13.9798 10.8168 13.394 10.231C12.8082 9.64521 11.8585 9.64521 11.2727 10.231L13.394 12.3523ZM13.394 25.6477L5.68566 17.9393L3.56434 20.0606L11.2727 27.769L13.394 25.6477ZM5.68566 20.0606L13.394 12.3523L11.2727 10.231L3.56434 17.9393L5.68566 20.0606Z" fill="#050505"/>
</svg>
