<svg width="28" height="24" viewBox="0 0 28 24" fill="none" xmlns="http://www.w3.org/2000/svg">
<path d="M14 18.7542C16.4588 18.7542 18.4521 16.7741 18.4521 14.3314C18.4521 11.8888 16.4588 9.90871 14 9.90871C11.5412 9.90871 9.54794 11.8888 9.54794 14.3314C9.54794 16.7741 11.5412 18.7542 14 18.7542Z" stroke="#050505" stroke-width="2" stroke-linecap="round" stroke-linejoin="round"/>
<path d="M25.5556 5.66288H2.44444C1.6467 5.66288 1 6.30972 1 7.10764V21.5552C1 22.3532 1.6467 23 2.44445 23H25.5556C26.3533 23 27 22.3532 27 21.5552V7.10764C27 6.30972 26.3533 5.66288 25.5556 5.66288Z" stroke="#050505" stroke-width="2" stroke-linecap="round" stroke-linejoin="round"/>
<path d="M17.2576 5.24582H10.7424C10.1272 5.24582 9.581 4.85601 9.38646 4.2781L8.91004 2.86282C8.60155 1.94639 9.2904 0.999999 10.266 0.999999H17.734C18.7096 0.999999 19.3984 1.94639 19.0899 2.86282L18.6135 4.2781C18.419 4.85601 17.8728 5.24582 17.2576 5.24582Z" stroke="#050505" stroke-width="2" stroke-linecap="round" stroke-linejoin="round"/>
</svg>
