<svg width="64" height="64" viewBox="0 0 64 64" fill="none" xmlns="http://www.w3.org/2000/svg">
<circle cx="32" cy="32" r="30" stroke="#050505" stroke-width="4"/>
<path d="M32 38.0609C34.8505 38.0609 37.1613 35.7501 37.1613 32.8996C37.1613 30.0491 34.8505 27.7383 32 27.7383C29.1495 27.7383 26.8387 30.0491 26.8387 32.8996C26.8387 35.7501 29.1495 38.0609 32 38.0609Z" stroke="#050505" stroke-width="4" stroke-linecap="round" stroke-linejoin="round"/>
<path d="M45.3964 22.7835H18.6036C17.6787 22.7835 16.929 23.5383 16.929 24.4695V41.3297C16.929 42.2609 17.6787 43.0157 18.6036 43.0157H45.3964C46.3212 43.0157 47.071 42.2609 47.071 41.3297V24.4695C47.071 23.5383 46.3212 22.7835 45.3964 22.7835Z" stroke="#050505" stroke-width="4" stroke-linecap="round" stroke-linejoin="round"/>
<path d="M35.7765 22.2968H28.2234C27.5102 22.2968 26.877 21.8419 26.6515 21.1674L26.0992 19.5158C25.7415 18.4464 26.5401 17.3419 27.6711 17.3419H36.3289C37.4598 17.3419 38.2584 18.4464 37.9008 19.5158L37.3485 21.1674C37.1229 21.8419 36.4897 22.2968 35.7765 22.2968Z" stroke="#050505" stroke-width="4" stroke-linecap="round" stroke-linejoin="round"/>
</svg>
