<svg width="79" height="79" viewBox="0 0 79 79" fill="none" xmlns="http://www.w3.org/2000/svg">
<circle cx="39.5" cy="39.5" r="37.5" stroke="#050505" stroke-width="4"/>
<path d="M39.5 46.9814C43.0186 46.9814 45.871 44.129 45.871 40.6105C45.871 37.0919 43.0186 34.2395 39.5 34.2395C35.9814 34.2395 33.129 37.0919 33.129 40.6105C33.129 44.129 35.9814 46.9814 39.5 46.9814Z" stroke="#050505" stroke-width="4" stroke-linecap="round" stroke-linejoin="round"/>
<path d="M56.0362 28.1234H22.9638C21.8222 28.1234 20.8968 29.0551 20.8968 30.2045V51.0164C20.8968 52.1658 21.8222 53.0975 22.9638 53.0975H56.0362C57.1778 53.0975 58.1032 52.1658 58.1032 51.0164V30.2045C58.1032 29.0551 57.1778 28.1234 56.0362 28.1234Z" stroke="#050505" stroke-width="4" stroke-linecap="round" stroke-linejoin="round"/>
<path d="M44.1617 27.5226H34.8383C33.9579 27.5226 33.1764 26.9611 32.898 26.1286L32.2162 24.0899C31.7747 22.7697 32.7605 21.4064 34.1565 21.4064H44.8435C46.2395 21.4064 47.2253 22.7697 46.7838 24.0899L46.102 26.1286C45.8237 26.9611 45.0421 27.5226 44.1617 27.5226Z" stroke="#050505" stroke-width="4" stroke-linecap="round" stroke-linejoin="round"/>
</svg>
