<svg width="64" height="64" viewBox="0 0 64 64" fill="none" xmlns="http://www.w3.org/2000/svg">
<circle cx="32" cy="32" r="32" fill="#D2D2D2"/>
<path d="M29.4701 36.8677H23.2307V43.1072" stroke="#050505" stroke-width="3" stroke-linecap="round" stroke-linejoin="round"/>
<path d="M41.2222 35.6159C40.5226 37.3476 39.3511 38.8484 37.841 39.9475C36.3309 41.0467 34.5428 41.7002 32.6798 41.8337C30.8168 41.9672 28.9538 41.5755 27.3024 40.7029C25.6509 39.8304 24.2774 38.5121 23.3379 36.8978" stroke="#050505" stroke-width="3" stroke-linecap="round" stroke-linejoin="round"/>
<path d="M22.7097 28.1364C23.4093 26.4047 24.5808 24.9039 26.0909 23.8048C27.601 22.7056 29.3891 22.0521 31.2521 21.9186C33.115 21.7851 34.9781 22.1768 36.6295 23.0494C38.281 23.9219 39.6545 25.2402 40.594 26.8545" stroke="#050505" stroke-width="3" stroke-linecap="round" stroke-linejoin="round"/>
<path d="M34.4616 26.8846H40.7011V20.6452" stroke="#050505" stroke-width="3" stroke-linecap="round" stroke-linejoin="round"/>
</svg>
