<svg width="39" height="52" viewBox="0 0 39 52" fill="none" xmlns="http://www.w3.org/2000/svg">
<path d="M5 24H33" stroke="black" stroke-width="2" stroke-linecap="round" stroke-linejoin="round"/>
<path d="M29.5304 9.79154L19.9054 1.34135C19.387 0.886217 18.613 0.886216 18.0946 1.34135L8.46956 9.79154C8.17116 10.0535 8 10.432 8 10.8298V22.6204C8 23.3823 8.61561 24 9.375 24H14.875C15.6344 24 16.25 23.3823 16.25 22.6204V17.1019C16.25 16.3399 16.8656 15.7223 17.625 15.7223H20.375C21.1344 15.7223 21.75 16.3399 21.75 17.1019V22.6204C21.75 23.3823 22.3656 24 23.125 24H28.625C29.3844 24 30 23.3823 30 22.6204V10.8298C30 10.432 29.8288 10.0535 29.5304 9.79154Z" stroke="black" stroke-width="2" stroke-linecap="round" stroke-linejoin="round"/>
<path d="M1.54 48C1.43733 48 1.358 47.972 1.302 47.916C1.246 47.8507 1.218 47.7713 1.218 47.678V38.536C1.218 38.4333 1.246 38.354 1.302 38.298C1.358 38.2327 1.43733 38.2 1.54 38.2H2.254C2.35667 38.2 2.436 38.2327 2.492 38.298C2.55733 38.354 2.59 38.4333 2.59 38.536V42.4H7.406V38.536C7.406 38.4333 7.434 38.354 7.49 38.298C7.55533 38.2327 7.63467 38.2 7.728 38.2H8.442C8.54467 38.2 8.624 38.2327 8.68 38.298C8.74533 38.354 8.778 38.4333 8.778 38.536V47.678C8.778 47.7713 8.74533 47.8507 8.68 47.916C8.624 47.972 8.54467 48 8.442 48H7.728C7.63467 48 7.55533 47.972 7.49 47.916C7.434 47.8507 7.406 47.7713 7.406 47.678V43.66H2.59V47.678C2.59 47.7713 2.55733 47.8507 2.492 47.916C2.436 47.972 2.35667 48 2.254 48H1.54ZM13.9985 48.14C13.2891 48.14 12.6965 48.0047 12.2205 47.734C11.7445 47.4633 11.3805 47.09 11.1285 46.614C10.8765 46.1287 10.7365 45.578 10.7085 44.962C10.6991 44.8033 10.6945 44.6027 10.6945 44.36C10.6945 44.108 10.6991 43.9073 10.7085 43.758C10.7365 43.1327 10.8765 42.582 11.1285 42.106C11.3898 41.63 11.7585 41.2567 12.2345 40.986C12.7105 40.7153 13.2985 40.58 13.9985 40.58C14.6985 40.58 15.2865 40.7153 15.7625 40.986C16.2385 41.2567 16.6025 41.63 16.8545 42.106C17.1158 42.582 17.2605 43.1327 17.2885 43.758C17.2978 43.9073 17.3025 44.108 17.3025 44.36C17.3025 44.6027 17.2978 44.8033 17.2885 44.962C17.2605 45.578 17.1205 46.1287 16.8685 46.614C16.6165 47.09 16.2525 47.4633 15.7765 47.734C15.3005 48.0047 14.7078 48.14 13.9985 48.14ZM13.9985 47.062C14.5771 47.062 15.0391 46.88 15.3845 46.516C15.7298 46.1427 15.9165 45.6013 15.9445 44.892C15.9538 44.752 15.9585 44.5747 15.9585 44.36C15.9585 44.1453 15.9538 43.968 15.9445 43.828C15.9165 43.1187 15.7298 42.582 15.3845 42.218C15.0391 41.8447 14.5771 41.658 13.9985 41.658C13.4198 41.658 12.9531 41.8447 12.5985 42.218C12.2531 42.582 12.0711 43.1187 12.0525 43.828C12.0431 43.968 12.0385 44.1453 12.0385 44.36C12.0385 44.5747 12.0431 44.752 12.0525 44.892C12.0711 45.6013 12.2531 46.1427 12.5985 46.516C12.9531 46.88 13.4198 47.062 13.9985 47.062ZM19.3775 48C19.2842 48 19.2049 47.972 19.1395 47.916C19.0835 47.8507 19.0555 47.7713 19.0555 47.678V41.042C19.0555 40.9487 19.0835 40.874 19.1395 40.818C19.2049 40.7527 19.2842 40.72 19.3775 40.72H20.0075C20.1009 40.72 20.1755 40.7527 20.2315 40.818C20.2969 40.874 20.3295 40.9487 20.3295 41.042V41.532C20.5442 41.2427 20.8149 41.014 21.1415 40.846C21.4682 40.6687 21.8602 40.58 22.3175 40.58C23.3722 40.5707 24.1189 41 24.5575 41.868C24.7722 41.476 25.0849 41.1633 25.4955 40.93C25.9062 40.6967 26.3729 40.58 26.8955 40.58C27.3809 40.58 27.8195 40.692 28.2115 40.916C28.6129 41.14 28.9255 41.4807 29.1495 41.938C29.3829 42.386 29.4995 42.9507 29.4995 43.632V47.678C29.4995 47.7713 29.4669 47.8507 29.4015 47.916C29.3455 47.972 29.2709 48 29.1775 48H28.5195C28.4262 48 28.3469 47.972 28.2815 47.916C28.2255 47.8507 28.1975 47.7713 28.1975 47.678V43.758C28.1975 43.2353 28.1229 42.8247 27.9735 42.526C27.8242 42.2273 27.6235 42.0173 27.3715 41.896C27.1195 41.7747 26.8442 41.714 26.5455 41.714C26.3029 41.714 26.0555 41.7747 25.8035 41.896C25.5515 42.0173 25.3415 42.2273 25.1735 42.526C25.0149 42.8247 24.9355 43.2353 24.9355 43.758V47.678C24.9355 47.7713 24.9029 47.8507 24.8375 47.916C24.7815 47.972 24.7069 48 24.6135 48H23.9555C23.8622 48 23.7829 47.972 23.7175 47.916C23.6615 47.8507 23.6335 47.7713 23.6335 47.678V43.758C23.6335 43.2353 23.5542 42.8247 23.3955 42.526C23.2369 42.2273 23.0315 42.0173 22.7795 41.896C22.5275 41.7747 22.2615 41.714 21.9815 41.714C21.7389 41.714 21.4915 41.7747 21.2395 41.896C20.9875 42.0173 20.7775 42.2273 20.6095 42.526C20.4509 42.8247 20.3715 43.2307 20.3715 43.744V47.678C20.3715 47.7713 20.3389 47.8507 20.2735 47.916C20.2175 47.972 20.1429 48 20.0495 48H19.3775ZM34.3949 48.14C33.4336 48.14 32.6683 47.846 32.0989 47.258C31.5296 46.6607 31.2169 45.8487 31.1609 44.822C31.1516 44.7007 31.1469 44.5467 31.1469 44.36C31.1469 44.164 31.1516 44.0053 31.1609 43.884C31.1983 43.2213 31.3523 42.6427 31.6229 42.148C31.8936 41.644 32.2623 41.2567 32.7289 40.986C33.2049 40.7153 33.7603 40.58 34.3949 40.58C35.1043 40.58 35.6969 40.7293 36.1729 41.028C36.6583 41.3267 37.0269 41.7513 37.2789 42.302C37.5309 42.8527 37.6569 43.4967 37.6569 44.234V44.472C37.6569 44.5747 37.6243 44.654 37.5589 44.71C37.5029 44.766 37.4283 44.794 37.3349 44.794H32.4909C32.4909 44.8033 32.4909 44.822 32.4909 44.85C32.4909 44.878 32.4909 44.9013 32.4909 44.92C32.5096 45.3027 32.5936 45.662 32.7429 45.998C32.8923 46.3247 33.1069 46.5907 33.3869 46.796C33.6669 47.0013 34.0029 47.104 34.3949 47.104C34.7309 47.104 35.0109 47.0527 35.2349 46.95C35.4589 46.8473 35.6409 46.7353 35.7809 46.614C35.9209 46.4833 36.0143 46.3853 36.0609 46.32C36.1449 46.1987 36.2103 46.1287 36.2569 46.11C36.3036 46.082 36.3783 46.068 36.4809 46.068H37.1529C37.2463 46.068 37.3209 46.096 37.3769 46.152C37.4423 46.1987 37.4703 46.2687 37.4609 46.362C37.4516 46.502 37.3769 46.6747 37.2369 46.88C37.0969 47.076 36.8963 47.272 36.6349 47.468C36.3736 47.664 36.0563 47.8273 35.6829 47.958C35.3096 48.0793 34.8803 48.14 34.3949 48.14ZM32.4909 43.828H36.3269V43.786C36.3269 43.366 36.2476 42.9927 36.0889 42.666C35.9396 42.3393 35.7203 42.0827 35.4309 41.896C35.1416 41.7 34.7963 41.602 34.3949 41.602C33.9936 41.602 33.6483 41.7 33.3589 41.896C33.0789 42.0827 32.8643 42.3393 32.7149 42.666C32.5656 42.9927 32.4909 43.366 32.4909 43.786V43.828Z" fill="black"/>
</svg>
