<svg width="17" height="26" viewBox="0 0 17 26" fill="none" xmlns="http://www.w3.org/2000/svg">
<path d="M15.4443 8.60001C18.4443 10 14.4443 22.1 7.14433 25.9C6.94433 26 6.74433 26 6.54433 25.9C4.14433 24.3 3.64433 22.6 3.54433 21.9C3.24433 19.2 6.24433 12.9 10.2443 12.8C10.8443 12.7 11.0443 12.8 11.0443 13.3C11.2443 15.5 8.54433 16.1 8.64433 18.3C11.1443 18.2 12.7443 14 13.0443 12.6C13.2443 11.2 13.4443 7.80001 15.4443 8.60001Z" fill="black"/>
<path d="M7.74433 3L7.94433 2.8V2.7C7.84433 1.3 7.04433 0.4 6.74433 0H6.64433C6.44433 0 6.04433 0 5.24433 0.8C5.14433 0.9 5.14433 0.9 5.24433 1C6.54433 1.2 7.24433 2.7 7.54433 3C7.64433 3.1 7.64433 3.1 7.74433 3Z" fill="black"/>
<path d="M7.74432 5.09999C7.54432 5.19999 7.34432 5.19999 7.24432 5.09999C1.94432 2.59999 -0.355677 6.39999 0.0443233 9.89999C0.244323 11.4 2.04432 14.8 2.94432 16.4C3.14432 16.7 3.54432 16.7 3.74432 16.4C5.54432 13.6 7.34432 10.4 10.9443 11.4C11.1443 11.5 11.3443 11.3 11.3443 11.1C11.7443 8.99999 12.0443 6.69999 13.7443 6.79999C14.0443 6.79999 14.2443 6.59999 14.2443 6.29999C13.9443 4.49999 11.6443 3.69999 7.74432 5.09999ZM8.84432 7.59999C8.84432 7.59999 8.84432 7.69999 8.84432 7.59999C8.14432 7.59999 6.84432 7.39999 5.64432 6.49999C5.64432 6.49999 5.64432 6.49999 5.64432 6.39999V6.19999C5.64432 6.09999 5.64432 6.09999 5.74432 6.09999C6.24432 6.19999 8.04432 6.79999 9.04432 6.09999C9.14432 6.09999 9.24432 6.09999 9.24432 6.19999C9.34432 7.19999 9.04432 7.49999 8.84432 7.59999Z" fill="black"/>
</svg>
