<svg width="28" height="25" viewBox="0 0 28 25" fill="none" xmlns="http://www.w3.org/2000/svg">
<path d="M18.3332 9.625C18.3332 14.3885 14.453 18.25 9.6666 18.25C7.96115 18.25 6.37075 17.7598 5.02994 16.9131L1 18.25L2.34331 14.2394C1.49261 12.905 1 11.3223 1 9.625C1 4.86154 4.88017 1 9.6666 1C14.453 1 18.3332 4.86154 18.3332 9.625Z" stroke="black" stroke-width="2" stroke-linecap="round" stroke-linejoin="round"/>
<path d="M10.1547 18.235C11.3402 21.5928 14.5543 24 18.3334 24C20.0389 24 21.6293 23.5098 22.97 22.6631L27 24L25.6567 19.9894L25.8618 19.6507C26.5861 18.3905 27 16.9308 27 15.375C27 10.6116 23.1198 6.75 18.3334 6.75L18.0085 6.75595L17.8454 6.76457" stroke="black" stroke-width="2" stroke-linecap="round" stroke-linejoin="round"/>
</svg>
