<svg width="64" height="64" viewBox="0 0 64 64" fill="none" xmlns="http://www.w3.org/2000/svg">
<circle cx="32" cy="32" r="32" fill="#D2D2D2"/>
<path d="M42.6667 21H21.3333C20.597 21 20 21.6156 20 22.375V41.625C20 42.3844 20.597 43 21.3333 43H42.6667C43.403 43 44 42.3844 44 41.625V22.375C44 21.6156 43.403 21 42.6667 21Z" stroke="#050505" stroke-width="2" stroke-linecap="round" stroke-linejoin="round"/>
<path d="M20 38.875L26.9733 30.4852C27.5103 29.8391 28.4817 29.8461 29.01 30.4998L33.732 36.3433C34.2339 36.9644 35.1447 37.007 35.6991 36.4353L37.6133 34.4613C38.1752 33.8818 39.1008 33.9347 39.5973 34.5746L44 40.25" stroke="#050505" stroke-width="2" stroke-linecap="round" stroke-linejoin="round"/>
<path d="M34.6667 27.875C34.6667 27.1156 35.2636 26.5 36 26.5C36.7364 26.5 37.3334 27.1156 37.3334 27.875C37.3334 28.6344 36.7364 29.25 36 29.25C35.2636 29.25 34.6667 28.6344 34.6667 27.875Z" stroke="#050505" stroke-width="2" stroke-linecap="round" stroke-linejoin="round"/>
</svg>
