<svg width="22" height="22" viewBox="0 0 22 22" fill="none" xmlns="http://www.w3.org/2000/svg">
<path d="M0.999999 4.75C0.999999 2.67893 3.98477 0.999999 7.66667 0.999999L14.3333 1C18.0152 1 21 2.67893 21 4.75" stroke="#F08A4B" stroke-width="2" stroke-linecap="round" stroke-linejoin="round"/>
<path d="M0.999999 17.25C0.999999 19.3211 3.98477 21 7.66667 21L14.3333 21C18.0152 21 21 19.3211 21 17.25" stroke="#F08A4B" stroke-width="2" stroke-linecap="round" stroke-linejoin="round"/>
<path d="M0.999999 4.75C0.999999 6.13071 3.98477 7.25 7.66667 7.25L14.3333 7.25C18.0152 7.25 21 6.13071 21 4.75" stroke="#F08A4B" stroke-width="2" stroke-linecap="round" stroke-linejoin="round"/>
<path d="M1 4.75V17.25M21 4.75V16.75" stroke="#F08A4B" stroke-width="2"/>
<path d="M6.52979 11.1758V14.75H6.07812V11.7397L5.16748 12.0718V11.6641L6.45898 11.1758H6.52979ZM10.187 14.3789V14.75H7.86035V14.4253L9.0249 13.1289C9.16813 12.9694 9.27881 12.8343 9.35693 12.7236C9.43669 12.6113 9.49202 12.5112 9.52295 12.4233C9.5555 12.3338 9.57178 12.2427 9.57178 12.1499C9.57178 12.0327 9.54736 11.9269 9.49854 11.8325C9.45133 11.7365 9.38135 11.66 9.28857 11.603C9.1958 11.5461 9.0835 11.5176 8.95166 11.5176C8.79378 11.5176 8.66195 11.5485 8.55615 11.6104C8.45199 11.6706 8.37386 11.7552 8.32178 11.8643C8.26969 11.9733 8.24365 12.0986 8.24365 12.2402H7.79199C7.79199 12.04 7.83594 11.8569 7.92383 11.6909C8.01172 11.5249 8.14193 11.3931 8.31445 11.2954C8.48698 11.1961 8.69938 11.1465 8.95166 11.1465C9.17627 11.1465 9.36833 11.1864 9.52783 11.2661C9.68734 11.3442 9.80941 11.4549 9.89404 11.5981C9.98031 11.7397 10.0234 11.9058 10.0234 12.0962C10.0234 12.2004 10.0055 12.3062 9.96973 12.4136C9.93555 12.5194 9.88753 12.6252 9.82568 12.731C9.76546 12.8368 9.69466 12.9409 9.61328 13.0435C9.53353 13.146 9.44808 13.2469 9.35693 13.3462L8.40479 14.3789H10.187ZM10.9365 11.1953H11.3931L12.5576 14.0933L13.7197 11.1953H14.1787L12.7334 14.75H12.377L10.9365 11.1953ZM10.7876 11.1953H11.1904L11.2563 13.3633V14.75H10.7876V11.1953ZM13.9224 11.1953H14.3252V14.75H13.8564V13.3633L13.9224 11.1953Z" fill="#F08A4B"/>
</svg>
