<svg width="19" height="23" viewBox="0 0 19 23" fill="none" xmlns="http://www.w3.org/2000/svg">
<path d="M16.7857 22H2.21429C1.54366 22 1 21.4777 1 20.8333L1 2.16667C1 1.52234 1.54365 1 2.21429 1L11.398 1C11.7363 1 12.0592 1.13556 12.289 1.37402L17.6767 6.96454C17.8845 7.18019 18 7.46327 18 7.75718L18 20.8333C18 21.4777 17.4563 22 16.7857 22Z" stroke="#F08A4B" stroke-width="2" stroke-linecap="round" stroke-linejoin="round"/>
<path d="M11.1299 16.5663L13.1427 18.5001" stroke="#F08A4B" stroke-width="2" stroke-linecap="round" stroke-linejoin="round"/>
<path d="M8.89289 17.3333C10.5695 17.3333 11.9286 16.0275 11.9286 14.4167C11.9286 12.8058 10.5695 11.5 8.89289 11.5C7.21631 11.5 5.85718 12.8058 5.85718 14.4167C5.85718 16.0275 7.21631 17.3333 8.89289 17.3333Z" stroke="#F08A4B" stroke-width="2" stroke-linecap="round" stroke-linejoin="round"/>
<path d="M18.0001 8L11.9286 8C11.258 8 10.7144 7.47767 10.7144 6.83333L10.7144 1" stroke="#F08A4B" stroke-width="2" stroke-linecap="round" stroke-linejoin="round"/>
</svg>
