<svg width="23" height="23" viewBox="0 0 23 23" fill="none" xmlns="http://www.w3.org/2000/svg">
<path d="M11.4829 21.9999C5.69599 21.9935 1.00636 17.2963 1 11.4999C1.41276 11.6167 1.83952 11.6764 2.26843 11.6774C3.6873 11.6878 5.02033 10.9978 5.83262 9.83255C6.55883 8.78212 6.71228 7.43745 6.24145 6.24997C6.54251 6.30375 6.84766 6.33115 7.15347 6.33187C8.51296 6.34202 9.80328 5.73233 10.66 4.67498C11.4984 3.64888 11.8262 2.29696 11.551 1C17.3406 1.01885 22.0187 5.73511 21.9999 11.5341C21.9811 17.333 17.2725 22.0187 11.4829 21.9999Z" stroke="#F08A4B" stroke-width="2" stroke-linecap="round" stroke-linejoin="round"/>
<path d="M9.16675 17.3333H9.16908V17.3357H9.16675V17.3333Z" stroke="#F08A4B" stroke-width="2" stroke-linecap="round" stroke-linejoin="round"/>
<path d="M15 15H15.0023V15.0023H15V15Z" stroke="#F08A4B" stroke-width="2" stroke-linecap="round" stroke-linejoin="round"/>
<path d="M10.3333 11.5H10.3356V11.5023H10.3333V11.5Z" stroke="#F08A4B" stroke-width="2" stroke-linecap="round" stroke-linejoin="round"/>
<path d="M16.1667 9.16667H16.1691V9.169H16.1667V9.16667Z" stroke="#F08A4B" stroke-width="2" stroke-linecap="round" stroke-linejoin="round"/>
<path d="M1 5.66667H1.00233V5.669H1V5.66667Z" stroke="#F08A4B" stroke-width="2" stroke-linecap="round" stroke-linejoin="round"/>
<path d="M6.83325 1H6.83559V1.00233H6.83325V1Z" stroke="#F08A4B" stroke-width="2" stroke-linecap="round" stroke-linejoin="round"/>
<path d="M2.16675 1H2.16908V1.00233H2.16675V1Z" stroke="#F08A4B" stroke-width="2" stroke-linecap="round" stroke-linejoin="round"/>
</svg>
