<svg width="22" height="20" viewBox="0 0 22 20" fill="none" xmlns="http://www.w3.org/2000/svg">
<path d="M17.9762 5.5H4.02379C3.46953 5.5 2.99652 5.89759 2.9054 6.44005L1.01571 17.6901C0.900525 18.3758 1.43347 19 2.13409 19H19.8659C20.5665 19 21.0995 18.3758 20.9843 17.6901L19.0946 6.44005C19.0035 5.89759 18.5305 5.5 17.9762 5.5Z" fill="#F08A4B" stroke="#F08A4B" stroke-linecap="round" stroke-linejoin="round"/>
<path d="M6.66919 5.5C6.66919 3.01472 8.69969 1 11.2044 1C13.7092 1 15.7397 3.01472 15.7397 5.5" stroke="#F08A4B" stroke-width="2" stroke-linecap="round" stroke-linejoin="round"/>
<path d="M7.13965 7.9375V13.625H6.38574V7.9375H7.13965ZM10.5732 7.9375L8.20996 10.5898L6.88184 11.9688L6.75684 11.1641L7.75684 10.0625L9.66699 7.9375H10.5732ZM9.84668 13.625L7.74121 10.8516L8.19043 10.2539L10.7451 13.625H9.84668ZM15.4873 10.793V12.875C15.417 12.9792 15.305 13.0964 15.1514 13.2266C14.9977 13.3542 14.7855 13.4661 14.5146 13.5625C14.2464 13.6562 13.9001 13.7031 13.4756 13.7031C13.1292 13.7031 12.8102 13.6432 12.5186 13.5234C12.2295 13.401 11.9782 13.224 11.7646 12.9922C11.5537 12.7578 11.3896 12.474 11.2725 12.1406C11.1579 11.8047 11.1006 11.4245 11.1006 11V10.5586C11.1006 10.1341 11.1501 9.75521 11.249 9.42188C11.3506 9.08854 11.499 8.80599 11.6943 8.57422C11.8896 8.33984 12.1292 8.16276 12.4131 8.04297C12.6969 7.92057 13.0225 7.85938 13.3896 7.85938C13.8245 7.85938 14.1878 7.9349 14.4795 8.08594C14.7738 8.23438 15.0029 8.4401 15.167 8.70312C15.3337 8.96615 15.4404 9.26562 15.4873 9.60156H14.7334C14.6995 9.39583 14.6318 9.20833 14.5303 9.03906C14.4313 8.86979 14.2894 8.73438 14.1045 8.63281C13.9196 8.52865 13.6813 8.47656 13.3896 8.47656C13.1266 8.47656 12.8988 8.52474 12.7061 8.62109C12.5133 8.71745 12.3545 8.85547 12.2295 9.03516C12.1045 9.21484 12.0107 9.43229 11.9482 9.6875C11.8883 9.94271 11.8584 10.2305 11.8584 10.5508V11C11.8584 11.3281 11.8962 11.6211 11.9717 11.8789C12.0498 12.1367 12.1605 12.3568 12.3037 12.5391C12.4469 12.7188 12.6175 12.8555 12.8154 12.9492C13.016 13.043 13.2373 13.0898 13.4795 13.0898C13.7477 13.0898 13.9652 13.0677 14.1318 13.0234C14.2985 12.9766 14.4287 12.9219 14.5225 12.8594C14.6162 12.7943 14.6878 12.7331 14.7373 12.6758V11.4023H13.4209V10.793H15.4873Z" fill="white"/>
</svg>
