<svg width="22" height="22" viewBox="0 0 22 22" fill="none" xmlns="http://www.w3.org/2000/svg">
<path d="M16.7805 19.8889C16.7805 19.2752 17.2852 18.7778 17.9077 18.7778C18.5302 18.7778 19.0349 19.2752 19.0349 19.8889C19.0349 20.5025 18.5302 21 17.9077 21C17.2852 21 16.7805 20.5025 16.7805 19.8889Z" stroke="#F08A4B" stroke-width="2" stroke-linecap="round" stroke-linejoin="round"/>
<path d="M5.50879 19.8889C5.50879 19.2752 6.01345 18.7778 6.63597 18.7778C7.25849 18.7778 7.76315 19.2752 7.76315 19.8889C7.76315 20.5025 7.25849 21 6.63597 21C6.01345 21 5.50879 20.5025 5.50879 19.8889Z" stroke="#F08A4B" stroke-width="2" stroke-linecap="round" stroke-linejoin="round"/>
<path d="M1 1H1.86535C2.40896 1 2.87512 1.38245 2.97381 1.90939L5.50872 15.4444" stroke="#F08A4B" stroke-width="2" stroke-linecap="round" stroke-linejoin="round"/>
<path d="M3.81787 4.33333H19.8723C20.5971 4.33333 21.1336 4.99805 20.9706 5.69429L18.8896 14.5832C18.7716 15.0873 18.3162 15.4444 17.7913 15.4444H5.50864" stroke="#F08A4B" stroke-width="2" stroke-linecap="round" stroke-linejoin="round"/>
</svg>
