<svg width="20" height="25" viewBox="0 0 20 25" fill="none" xmlns="http://www.w3.org/2000/svg">
<path d="M9.99998 13.4324C11.8854 13.4324 13.4138 11.9017 13.4138 10.0135C13.4138 8.12529 11.8854 6.59459 9.99998 6.59459C8.11459 6.59459 6.58618 8.12529 6.58618 10.0135C6.58618 11.9017 8.11459 13.4324 9.99998 13.4324Z" stroke="#F08A4B" stroke-width="2" stroke-linecap="round" stroke-linejoin="round"/>
<path d="M10 24C10 24 19 17.8077 19 9.84615C19 7.50001 18.0518 5.24995 16.364 3.59098C14.6761 1.932 12.3869 1 10 1C7.61305 1 5.32387 1.932 3.63604 3.59098C1.94821 5.24995 1 7.50001 1 9.84615C1 17.8077 10 24 10 24Z" stroke="#F08A4B" stroke-width="2" stroke-linecap="round" stroke-linejoin="round"/>
</svg>
