<svg width="26" height="26" viewBox="0 0 26 26" fill="none" xmlns="http://www.w3.org/2000/svg">
<path d="M13 24.6842C19.6274 24.6842 25 19.3823 25 12.8421C25 6.30189 19.6274 1 13 1C6.37258 1 1 6.30189 1 12.8421C1 19.3823 6.37258 24.6842 13 24.6842Z" stroke="black" stroke-width="2" stroke-linecap="round" stroke-linejoin="round"/>
<path d="M13.461 15.7969H12.0078C12.013 15.2969 12.0573 14.888 12.1406 14.5703C12.2292 14.2474 12.3724 13.9531 12.5703 13.6875C12.7682 13.4219 13.0313 13.1198 13.3594 12.7812C13.599 12.5365 13.8177 12.3073 14.0156 12.0938C14.2188 11.875 14.3828 11.6406 14.5078 11.3906C14.6328 11.1354 14.6953 10.8307 14.6953 10.4766C14.6953 10.1172 14.6302 9.80729 14.5 9.54688C14.375 9.28646 14.1875 9.08594 13.9375 8.94531C13.6927 8.80469 13.388 8.73438 13.0235 8.73438C12.7214 8.73438 12.4349 8.78906 12.1641 8.89844C11.8932 9.00781 11.6745 9.17708 11.5078 9.40625C11.3412 9.63021 11.2552 9.92448 11.25 10.2891H9.80471C9.81512 9.70052 9.96096 9.19531 10.2422 8.77344C10.5287 8.35156 10.9141 8.02865 11.3985 7.80469C11.8828 7.58073 12.4245 7.46875 13.0235 7.46875C13.6849 7.46875 14.2474 7.58854 14.711 7.82812C15.1797 8.06771 15.5365 8.41146 15.7813 8.85938C16.0261 9.30208 16.1485 9.82812 16.1485 10.4375C16.1485 10.9062 16.0521 11.3385 15.8594 11.7344C15.6719 12.125 15.4297 12.4922 15.1328 12.8359C14.836 13.1797 14.5209 13.5078 14.1875 13.8203C13.9011 14.0859 13.7084 14.3854 13.6094 14.7188C13.5104 15.0521 13.461 15.4115 13.461 15.7969ZM11.9453 18.2734C11.9453 18.0391 12.0182 17.8411 12.1641 17.6797C12.3099 17.5182 12.5209 17.4375 12.7969 17.4375C13.0781 17.4375 13.2917 17.5182 13.4375 17.6797C13.5834 17.8411 13.6563 18.0391 13.6563 18.2734C13.6563 18.4974 13.5834 18.6901 13.4375 18.8516C13.2917 19.013 13.0781 19.0938 12.7969 19.0938C12.5209 19.0938 12.3099 19.013 12.1641 18.8516C12.0182 18.6901 11.9453 18.4974 11.9453 18.2734Z" fill="black"/>
</svg>
