<svg width="51" height="52" viewBox="0 0 51 52" fill="none" xmlns="http://www.w3.org/2000/svg">
<path d="M36.5556 5.66288H13.4444C12.6467 5.66288 12 6.30972 12 7.10764V21.5552C12 22.3532 12.6467 23 13.4444 23H36.5556C37.3533 23 38 22.3532 38 21.5552V7.10764C38 6.30972 37.3533 5.66288 36.5556 5.66288Z" fill="white" stroke="white" stroke-width="2" stroke-linecap="round" stroke-linejoin="round"/>
<path d="M25 18.7542C27.4588 18.7542 29.4521 16.7741 29.4521 14.3314C29.4521 11.8888 27.4588 9.90871 25 9.90871C22.5412 9.90871 20.5479 11.8888 20.5479 14.3314C20.5479 16.7741 22.5412 18.7542 25 18.7542Z" stroke="#F3CA40" stroke-width="2" stroke-linecap="round" stroke-linejoin="round"/>
<path d="M28.2576 5.24582H21.7424C21.1272 5.24582 20.581 4.85602 20.3865 4.2781L19.91 2.86282C19.6015 1.94639 20.2904 1 21.266 1H28.734C29.7096 1 30.3984 1.94639 30.0899 2.86282L29.6135 4.2781C29.419 4.85602 28.8728 5.24582 28.2576 5.24582Z" fill="white" stroke="white" stroke-width="2" stroke-linecap="round" stroke-linejoin="round"/>
<path d="M4.746 48.14C3.88733 48.14 3.17333 47.9813 2.604 47.664C2.044 47.3467 1.61933 46.9033 1.33 46.334C1.04067 45.7647 0.882 45.102 0.854 44.346C0.844667 43.9633 0.84 43.5527 0.84 43.114C0.84 42.6753 0.844667 42.2553 0.854 41.854C0.882 41.098 1.04067 40.4353 1.33 39.866C1.61933 39.2967 2.044 38.8533 2.604 38.536C3.17333 38.2187 3.88733 38.06 4.746 38.06C5.39 38.06 5.95467 38.1487 6.44 38.326C6.92533 38.5033 7.32667 38.7413 7.644 39.04C7.97067 39.3387 8.218 39.6747 8.386 40.048C8.554 40.412 8.64733 40.79 8.666 41.182C8.67533 41.266 8.64733 41.336 8.582 41.392C8.526 41.448 8.456 41.476 8.372 41.476H7.602C7.518 41.476 7.44333 41.4527 7.378 41.406C7.322 41.3593 7.28 41.2753 7.252 41.154C7.09333 40.426 6.79467 39.9267 6.356 39.656C5.92667 39.3853 5.38533 39.25 4.732 39.25C3.98533 39.25 3.39267 39.4647 2.954 39.894C2.51533 40.314 2.27733 40.9907 2.24 41.924C2.212 42.6893 2.212 43.4733 2.24 44.276C2.27733 45.2093 2.51533 45.8907 2.954 46.32C3.39267 46.74 3.98533 46.95 4.732 46.95C5.38533 46.95 5.92667 46.8147 6.356 46.544C6.79467 46.2733 7.09333 45.774 7.252 45.046C7.28 44.9247 7.322 44.8407 7.378 44.794C7.44333 44.7473 7.518 44.724 7.602 44.724H8.372C8.456 44.724 8.526 44.752 8.582 44.808C8.64733 44.864 8.67533 44.934 8.666 45.018C8.64733 45.41 8.554 45.7927 8.386 46.166C8.218 46.53 7.97067 46.8613 7.644 47.16C7.32667 47.4587 6.92533 47.6967 6.44 47.874C5.95467 48.0513 5.39 48.14 4.746 48.14ZM12.3902 48.14C11.9236 48.14 11.4989 48.0467 11.1162 47.86C10.7336 47.6733 10.4256 47.4213 10.1922 47.104C9.95889 46.7867 9.84222 46.4273 9.84222 46.026C9.84222 45.382 10.1036 44.8687 10.6262 44.486C11.1489 44.1033 11.8302 43.8513 12.6702 43.73L14.7562 43.436V43.03C14.7562 42.582 14.6256 42.232 14.3642 41.98C14.1122 41.728 13.6969 41.602 13.1182 41.602C12.6982 41.602 12.3576 41.686 12.0962 41.854C11.8442 42.022 11.6669 42.2367 11.5642 42.498C11.5082 42.638 11.4102 42.708 11.2702 42.708H10.6402C10.5376 42.708 10.4582 42.68 10.4022 42.624C10.3556 42.5587 10.3322 42.484 10.3322 42.4C10.3322 42.26 10.3836 42.0873 10.4862 41.882C10.5982 41.6767 10.7662 41.476 10.9902 41.28C11.2142 41.084 11.4989 40.9207 11.8442 40.79C12.1989 40.65 12.6282 40.58 13.1322 40.58C13.6922 40.58 14.1636 40.6547 14.5462 40.804C14.9289 40.944 15.2276 41.1353 15.4422 41.378C15.6662 41.6207 15.8249 41.896 15.9182 42.204C16.0209 42.512 16.0722 42.8247 16.0722 43.142V47.678C16.0722 47.7713 16.0396 47.8507 15.9742 47.916C15.9182 47.972 15.8436 48 15.7502 48H15.1062C15.0036 48 14.9242 47.972 14.8682 47.916C14.8122 47.8507 14.7842 47.7713 14.7842 47.678V47.076C14.6629 47.244 14.4996 47.412 14.2942 47.58C14.0889 47.7387 13.8322 47.874 13.5242 47.986C13.2162 48.0887 12.8382 48.14 12.3902 48.14ZM12.6842 47.09C13.0669 47.09 13.4169 47.0107 13.7342 46.852C14.0516 46.684 14.2989 46.4273 14.4762 46.082C14.6629 45.7367 14.7562 45.3027 14.7562 44.78V44.388L13.1322 44.626C12.4696 44.7193 11.9702 44.878 11.6342 45.102C11.2982 45.3167 11.1302 45.592 11.1302 45.928C11.1302 46.1893 11.2049 46.4087 11.3542 46.586C11.5129 46.754 11.7089 46.88 11.9422 46.964C12.1849 47.048 12.4322 47.09 12.6842 47.09ZM18.4068 48C18.3135 48 18.2342 47.972 18.1688 47.916C18.1128 47.8507 18.0848 47.7713 18.0848 47.678V41.042C18.0848 40.9487 18.1128 40.874 18.1688 40.818C18.2342 40.7527 18.3135 40.72 18.4068 40.72H19.0368C19.1302 40.72 19.2048 40.7527 19.2608 40.818C19.3262 40.874 19.3588 40.9487 19.3588 41.042V41.532C19.5735 41.2427 19.8442 41.014 20.1708 40.846C20.4975 40.6687 20.8895 40.58 21.3468 40.58C22.4015 40.5707 23.1482 41 23.5868 41.868C23.8015 41.476 24.1142 41.1633 24.5248 40.93C24.9355 40.6967 25.4022 40.58 25.9248 40.58C26.4102 40.58 26.8488 40.692 27.2408 40.916C27.6422 41.14 27.9548 41.4807 28.1788 41.938C28.4122 42.386 28.5288 42.9507 28.5288 43.632V47.678C28.5288 47.7713 28.4962 47.8507 28.4308 47.916C28.3748 47.972 28.3002 48 28.2068 48H27.5488C27.4555 48 27.3762 47.972 27.3108 47.916C27.2548 47.8507 27.2268 47.7713 27.2268 47.678V43.758C27.2268 43.2353 27.1522 42.8247 27.0028 42.526C26.8535 42.2273 26.6528 42.0173 26.4008 41.896C26.1488 41.7747 25.8735 41.714 25.5748 41.714C25.3322 41.714 25.0848 41.7747 24.8328 41.896C24.5808 42.0173 24.3708 42.2273 24.2028 42.526C24.0442 42.8247 23.9648 43.2353 23.9648 43.758V47.678C23.9648 47.7713 23.9322 47.8507 23.8668 47.916C23.8108 47.972 23.7362 48 23.6428 48H22.9848C22.8915 48 22.8122 47.972 22.7468 47.916C22.6908 47.8507 22.6628 47.7713 22.6628 47.678V43.758C22.6628 43.2353 22.5835 42.8247 22.4248 42.526C22.2662 42.2273 22.0608 42.0173 21.8088 41.896C21.5568 41.7747 21.2908 41.714 21.0108 41.714C20.7682 41.714 20.5208 41.7747 20.2688 41.896C20.0168 42.0173 19.8068 42.2273 19.6388 42.526C19.4802 42.8247 19.4008 43.2307 19.4008 43.744V47.678C19.4008 47.7713 19.3682 47.8507 19.3028 47.916C19.2468 47.972 19.1722 48 19.0788 48H18.4068ZM33.4242 48.14C32.4629 48.14 31.6976 47.846 31.1282 47.258C30.5589 46.6607 30.2462 45.8487 30.1902 44.822C30.1809 44.7007 30.1762 44.5467 30.1762 44.36C30.1762 44.164 30.1809 44.0053 30.1902 43.884C30.2276 43.2213 30.3816 42.6427 30.6522 42.148C30.9229 41.644 31.2916 41.2567 31.7582 40.986C32.2342 40.7153 32.7896 40.58 33.4242 40.58C34.1336 40.58 34.7262 40.7293 35.2022 41.028C35.6876 41.3267 36.0562 41.7513 36.3082 42.302C36.5602 42.8527 36.6862 43.4967 36.6862 44.234V44.472C36.6862 44.5747 36.6536 44.654 36.5882 44.71C36.5322 44.766 36.4576 44.794 36.3642 44.794H31.5202C31.5202 44.8033 31.5202 44.822 31.5202 44.85C31.5202 44.878 31.5202 44.9013 31.5202 44.92C31.5389 45.3027 31.6229 45.662 31.7722 45.998C31.9216 46.3247 32.1362 46.5907 32.4162 46.796C32.6962 47.0013 33.0322 47.104 33.4242 47.104C33.7602 47.104 34.0402 47.0527 34.2642 46.95C34.4882 46.8473 34.6702 46.7353 34.8102 46.614C34.9502 46.4833 35.0436 46.3853 35.0902 46.32C35.1742 46.1987 35.2396 46.1287 35.2862 46.11C35.3329 46.082 35.4076 46.068 35.5102 46.068H36.1822C36.2756 46.068 36.3502 46.096 36.4062 46.152C36.4716 46.1987 36.4996 46.2687 36.4902 46.362C36.4809 46.502 36.4062 46.6747 36.2662 46.88C36.1262 47.076 35.9256 47.272 35.6642 47.468C35.4029 47.664 35.0856 47.8273 34.7122 47.958C34.3389 48.0793 33.9096 48.14 33.4242 48.14ZM31.5202 43.828H35.3562V43.786C35.3562 43.366 35.2769 42.9927 35.1182 42.666C34.9689 42.3393 34.7496 42.0827 34.4602 41.896C34.1709 41.7 33.8256 41.602 33.4242 41.602C33.0229 41.602 32.6776 41.7 32.3882 41.896C32.1082 42.0827 31.8936 42.3393 31.7442 42.666C31.5949 42.9927 31.5202 43.366 31.5202 43.786V43.828ZM38.6822 48C38.5889 48 38.5096 47.972 38.4442 47.916C38.3882 47.8507 38.3602 47.7713 38.3602 47.678V41.056C38.3602 40.9627 38.3882 40.8833 38.4442 40.818C38.5096 40.7527 38.5889 40.72 38.6822 40.72H39.3262C39.4196 40.72 39.4989 40.7527 39.5642 40.818C39.6296 40.8833 39.6622 40.9627 39.6622 41.056V41.672C39.8489 41.3547 40.1056 41.1167 40.4322 40.958C40.7589 40.7993 41.1509 40.72 41.6082 40.72H42.1682C42.2616 40.72 42.3362 40.7527 42.3922 40.818C42.4482 40.874 42.4762 40.9487 42.4762 41.042V41.616C42.4762 41.7093 42.4482 41.784 42.3922 41.84C42.3362 41.896 42.2616 41.924 42.1682 41.924H41.3282C40.8242 41.924 40.4276 42.0733 40.1382 42.372C39.8489 42.6613 39.7042 43.058 39.7042 43.562V47.678C39.7042 47.7713 39.6716 47.8507 39.6062 47.916C39.5409 47.972 39.4616 48 39.3682 48H38.6822ZM45.5992 48.14C45.1325 48.14 44.7079 48.0467 44.3252 47.86C43.9425 47.6733 43.6345 47.4213 43.4012 47.104C43.1679 46.7867 43.0512 46.4273 43.0512 46.026C43.0512 45.382 43.3125 44.8687 43.8352 44.486C44.3579 44.1033 45.0392 43.8513 45.8792 43.73L47.9652 43.436V43.03C47.9652 42.582 47.8345 42.232 47.5732 41.98C47.3212 41.728 46.9059 41.602 46.3272 41.602C45.9072 41.602 45.5665 41.686 45.3052 41.854C45.0532 42.022 44.8759 42.2367 44.7732 42.498C44.7172 42.638 44.6192 42.708 44.4792 42.708H43.8492C43.7465 42.708 43.6672 42.68 43.6112 42.624C43.5645 42.5587 43.5412 42.484 43.5412 42.4C43.5412 42.26 43.5925 42.0873 43.6952 41.882C43.8072 41.6767 43.9752 41.476 44.1992 41.28C44.4232 41.084 44.7079 40.9207 45.0532 40.79C45.4079 40.65 45.8372 40.58 46.3412 40.58C46.9012 40.58 47.3725 40.6547 47.7552 40.804C48.1379 40.944 48.4365 41.1353 48.6512 41.378C48.8752 41.6207 49.0339 41.896 49.1272 42.204C49.2299 42.512 49.2812 42.8247 49.2812 43.142V47.678C49.2812 47.7713 49.2485 47.8507 49.1832 47.916C49.1272 47.972 49.0525 48 48.9592 48H48.3152C48.2125 48 48.1332 47.972 48.0772 47.916C48.0212 47.8507 47.9932 47.7713 47.9932 47.678V47.076C47.8719 47.244 47.7085 47.412 47.5032 47.58C47.2979 47.7387 47.0412 47.874 46.7332 47.986C46.4252 48.0887 46.0472 48.14 45.5992 48.14ZM45.8932 47.09C46.2759 47.09 46.6259 47.0107 46.9432 46.852C47.2605 46.684 47.5079 46.4273 47.6852 46.082C47.8719 45.7367 47.9652 45.3027 47.9652 44.78V44.388L46.3412 44.626C45.6785 44.7193 45.1792 44.878 44.8432 45.102C44.5072 45.3167 44.3392 45.592 44.3392 45.928C44.3392 46.1893 44.4139 46.4087 44.5632 46.586C44.7219 46.754 44.9179 46.88 45.1512 46.964C45.3939 47.048 45.6412 47.09 45.8932 47.09Z" fill="white"/>
</svg>
