<svg width="28" height="24" viewBox="0 0 28 24" fill="none" xmlns="http://www.w3.org/2000/svg">
<path d="M14 18.7542C16.4588 18.7542 18.4521 16.7741 18.4521 14.3315C18.4521 11.8888 16.4588 9.90872 14 9.90872C11.5412 9.90872 9.54797 11.8888 9.54797 14.3315C9.54797 16.7741 11.5412 18.7542 14 18.7542Z" stroke="white" stroke-width="2" stroke-linecap="round" stroke-linejoin="round"/>
<path d="M25.5556 5.66289H2.44444C1.6467 5.66289 1 6.30973 1 7.10765V21.5552C1 22.3532 1.6467 23 2.44445 23H25.5556C26.3533 23 27 22.3532 27 21.5552V7.10765C27 6.30973 26.3533 5.66289 25.5556 5.66289Z" stroke="white" stroke-width="2" stroke-linecap="round" stroke-linejoin="round"/>
<path d="M17.2576 5.24582H10.7423C10.1271 5.24582 9.58097 4.85601 9.38643 4.27809L8.91001 2.86282C8.60152 1.94638 9.29037 0.999995 10.2659 0.999995H17.734C18.7095 0.999995 19.3984 1.94638 19.0899 2.86282L18.6135 4.27809C18.4189 4.85601 17.8728 5.24582 17.2576 5.24582Z" stroke="white" stroke-width="2" stroke-linecap="round" stroke-linejoin="round"/>
</svg>
