<svg width="48" height="52" viewBox="0 0 48 52" fill="none" xmlns="http://www.w3.org/2000/svg">
<path d="M23.5 24C29.8513 24 35 18.8513 35 12.5C35 6.14873 29.8513 1 23.5 1C17.1487 1 12 6.14873 12 12.5C12 18.8513 17.1487 24 23.5 24Z" stroke="white" stroke-width="2" stroke-miterlimit="10" stroke-linecap="round" stroke-linejoin="round"/>
<path d="M23.5 6.11111V12.5H29.8889" stroke="white" stroke-width="2" stroke-linecap="round" stroke-linejoin="round"/>
<path d="M1.54 48C1.43733 48 1.358 47.972 1.302 47.916C1.246 47.8507 1.218 47.7713 1.218 47.678V38.536C1.218 38.4333 1.246 38.354 1.302 38.298C1.358 38.2327 1.43733 38.2 1.54 38.2H2.254C2.35667 38.2 2.436 38.2327 2.492 38.298C2.55733 38.354 2.59 38.4333 2.59 38.536V42.4H7.406V38.536C7.406 38.4333 7.434 38.354 7.49 38.298C7.55533 38.2327 7.63467 38.2 7.728 38.2H8.442C8.54467 38.2 8.624 38.2327 8.68 38.298C8.74533 38.354 8.778 38.4333 8.778 38.536V47.678C8.778 47.7713 8.74533 47.8507 8.68 47.916C8.624 47.972 8.54467 48 8.442 48H7.728C7.63467 48 7.55533 47.972 7.49 47.916C7.434 47.8507 7.406 47.7713 7.406 47.678V43.66H2.59V47.678C2.59 47.7713 2.55733 47.8507 2.492 47.916C2.436 47.972 2.35667 48 2.254 48H1.54ZM11.3385 48C11.2451 48 11.1658 47.972 11.1005 47.916C11.0445 47.8507 11.0165 47.7713 11.0165 47.678V41.042C11.0165 40.9487 11.0445 40.874 11.1005 40.818C11.1658 40.7527 11.2451 40.72 11.3385 40.72H12.0105C12.1038 40.72 12.1785 40.7527 12.2345 40.818C12.2905 40.874 12.3185 40.9487 12.3185 41.042V47.678C12.3185 47.7713 12.2905 47.8507 12.2345 47.916C12.1785 47.972 12.1038 48 12.0105 48H11.3385ZM11.2265 39.362C11.1331 39.362 11.0538 39.334 10.9885 39.278C10.9325 39.2127 10.9045 39.1333 10.9045 39.04V38.284C10.9045 38.1907 10.9325 38.116 10.9885 38.06C11.0538 37.9947 11.1331 37.962 11.2265 37.962H12.1085C12.2018 37.962 12.2765 37.9947 12.3325 38.06C12.3978 38.116 12.4305 38.1907 12.4305 38.284V39.04C12.4305 39.1333 12.3978 39.2127 12.3325 39.278C12.2765 39.334 12.2018 39.362 12.1085 39.362H11.2265ZM17.0091 48.14C16.4865 48.14 16.0385 48.0747 15.6651 47.944C15.2918 47.8133 14.9885 47.6547 14.7551 47.468C14.5218 47.2813 14.3445 47.0947 14.2231 46.908C14.1111 46.7213 14.0505 46.572 14.0411 46.46C14.0318 46.3573 14.0645 46.278 14.1391 46.222C14.2138 46.166 14.2885 46.138 14.3631 46.138H14.9791C15.0351 46.138 15.0771 46.1473 15.1051 46.166C15.1425 46.1753 15.1891 46.2127 15.2451 46.278C15.3665 46.4087 15.5018 46.5393 15.6511 46.67C15.8005 46.8007 15.9825 46.908 16.1971 46.992C16.4211 47.076 16.6965 47.118 17.0231 47.118C17.4991 47.118 17.8911 47.0293 18.1991 46.852C18.5071 46.6653 18.6611 46.3947 18.6611 46.04C18.6611 45.8067 18.5958 45.62 18.4651 45.48C18.3438 45.34 18.1198 45.214 17.7931 45.102C17.4758 44.99 17.0371 44.8733 16.4771 44.752C15.9171 44.6213 15.4738 44.4627 15.1471 44.276C14.8205 44.08 14.5871 43.8513 14.4471 43.59C14.3071 43.3193 14.2371 43.016 14.2371 42.68C14.2371 42.3347 14.3398 42.0033 14.5451 41.686C14.7505 41.3593 15.0491 41.0933 15.4411 40.888C15.8425 40.6827 16.3418 40.58 16.9391 40.58C17.4245 40.58 17.8398 40.6407 18.1851 40.762C18.5305 40.8833 18.8151 41.0373 19.0391 41.224C19.2631 41.4013 19.4311 41.5787 19.5431 41.756C19.6551 41.9333 19.7158 42.0827 19.7251 42.204C19.7345 42.2973 19.7065 42.3767 19.6411 42.442C19.5758 42.498 19.5011 42.526 19.4171 42.526H18.8291C18.7638 42.526 18.7078 42.512 18.6611 42.484C18.6238 42.456 18.5865 42.4233 18.5491 42.386C18.4558 42.2647 18.3438 42.1433 18.2131 42.022C18.0918 41.9007 17.9285 41.8027 17.7231 41.728C17.5271 41.644 17.2658 41.602 16.9391 41.602C16.4725 41.602 16.1225 41.7 15.8891 41.896C15.6558 42.092 15.5391 42.3393 15.5391 42.638C15.5391 42.8153 15.5905 42.974 15.6931 43.114C15.7958 43.254 15.9918 43.38 16.2811 43.492C16.5705 43.604 16.9998 43.7253 17.5691 43.856C18.1851 43.9773 18.6705 44.1407 19.0251 44.346C19.3798 44.5513 19.6318 44.7893 19.7811 45.06C19.9305 45.3307 20.0051 45.6433 20.0051 45.998C20.0051 46.39 19.8885 46.7493 19.6551 47.076C19.4311 47.4027 19.0951 47.664 18.6471 47.86C18.2085 48.0467 17.6625 48.14 17.0091 48.14ZM24.4542 48C23.9315 48 23.5068 47.902 23.1802 47.706C22.8535 47.5007 22.6155 47.216 22.4662 46.852C22.3168 46.4787 22.2422 46.04 22.2422 45.536V41.84H21.1502C21.0568 41.84 20.9775 41.812 20.9122 41.756C20.8562 41.6907 20.8282 41.6113 20.8282 41.518V41.042C20.8282 40.9487 20.8562 40.874 20.9122 40.818C20.9775 40.7527 21.0568 40.72 21.1502 40.72H22.2422V38.382C22.2422 38.2887 22.2702 38.214 22.3262 38.158C22.3915 38.0927 22.4708 38.06 22.5642 38.06H23.2222C23.3155 38.06 23.3902 38.0927 23.4462 38.158C23.5115 38.214 23.5442 38.2887 23.5442 38.382V40.72H25.2802C25.3735 40.72 25.4482 40.7527 25.5042 40.818C25.5695 40.874 25.6022 40.9487 25.6022 41.042V41.518C25.6022 41.6113 25.5695 41.6907 25.5042 41.756C25.4482 41.812 25.3735 41.84 25.2802 41.84H23.5442V45.438C23.5442 45.8767 23.6188 46.222 23.7682 46.474C23.9175 46.726 24.1835 46.852 24.5662 46.852H25.4202C25.5135 46.852 25.5882 46.8847 25.6442 46.95C25.7095 47.006 25.7422 47.0807 25.7422 47.174V47.678C25.7422 47.7713 25.7095 47.8507 25.6442 47.916C25.5882 47.972 25.5135 48 25.4202 48H24.4542ZM30.0629 48.14C29.3536 48.14 28.7609 48.0047 28.2849 47.734C27.8089 47.4633 27.4449 47.09 27.1929 46.614C26.9409 46.1287 26.8009 45.578 26.7729 44.962C26.7636 44.8033 26.7589 44.6027 26.7589 44.36C26.7589 44.108 26.7636 43.9073 26.7729 43.758C26.8009 43.1327 26.9409 42.582 27.1929 42.106C27.4543 41.63 27.8229 41.2567 28.2989 40.986C28.7749 40.7153 29.3629 40.58 30.0629 40.58C30.7629 40.58 31.3509 40.7153 31.8269 40.986C32.3029 41.2567 32.6669 41.63 32.9189 42.106C33.1803 42.582 33.3249 43.1327 33.3529 43.758C33.3623 43.9073 33.3669 44.108 33.3669 44.36C33.3669 44.6027 33.3623 44.8033 33.3529 44.962C33.3249 45.578 33.1849 46.1287 32.9329 46.614C32.6809 47.09 32.3169 47.4633 31.8409 47.734C31.3649 48.0047 30.7723 48.14 30.0629 48.14ZM30.0629 47.062C30.6416 47.062 31.1036 46.88 31.4489 46.516C31.7943 46.1427 31.9809 45.6013 32.0089 44.892C32.0183 44.752 32.0229 44.5747 32.0229 44.36C32.0229 44.1453 32.0183 43.968 32.0089 43.828C31.9809 43.1187 31.7943 42.582 31.4489 42.218C31.1036 41.8447 30.6416 41.658 30.0629 41.658C29.4843 41.658 29.0176 41.8447 28.6629 42.218C28.3176 42.582 28.1356 43.1187 28.1169 43.828C28.1076 43.968 28.1029 44.1453 28.1029 44.36C28.1029 44.5747 28.1076 44.752 28.1169 44.892C28.1356 45.6013 28.3176 46.1427 28.6629 46.516C29.0176 46.88 29.4843 47.062 30.0629 47.062ZM35.442 48C35.3487 48 35.2693 47.972 35.204 47.916C35.148 47.8507 35.12 47.7713 35.12 47.678V41.056C35.12 40.9627 35.148 40.8833 35.204 40.818C35.2693 40.7527 35.3487 40.72 35.442 40.72H36.086C36.1793 40.72 36.2587 40.7527 36.324 40.818C36.3893 40.8833 36.422 40.9627 36.422 41.056V41.672C36.6087 41.3547 36.8653 41.1167 37.192 40.958C37.5187 40.7993 37.9107 40.72 38.368 40.72H38.928C39.0213 40.72 39.096 40.7527 39.152 40.818C39.208 40.874 39.236 40.9487 39.236 41.042V41.616C39.236 41.7093 39.208 41.784 39.152 41.84C39.096 41.896 39.0213 41.924 38.928 41.924H38.088C37.584 41.924 37.1873 42.0733 36.898 42.372C36.6087 42.6613 36.464 43.058 36.464 43.562V47.678C36.464 47.7713 36.4313 47.8507 36.366 47.916C36.3007 47.972 36.2213 48 36.128 48H35.442ZM41.7123 50.66C41.6377 50.66 41.5723 50.632 41.5163 50.576C41.4603 50.52 41.4323 50.4547 41.4323 50.38C41.4323 50.3427 41.437 50.3053 41.4463 50.268C41.4557 50.2307 41.4743 50.184 41.5023 50.128L42.5803 47.566L39.9063 41.252C39.8597 41.14 39.8363 41.0607 39.8363 41.014C39.8363 40.93 39.8643 40.86 39.9203 40.804C39.9763 40.748 40.0463 40.72 40.1303 40.72H40.8163C40.9097 40.72 40.9843 40.7433 41.0403 40.79C41.0963 40.8367 41.1337 40.8927 41.1523 40.958L43.2803 46.054L45.4643 40.958C45.4923 40.8927 45.5297 40.8367 45.5763 40.79C45.6323 40.7433 45.7117 40.72 45.8143 40.72H46.4723C46.5563 40.72 46.6263 40.748 46.6823 40.804C46.7383 40.86 46.7663 40.9253 46.7663 41C46.7663 41.0467 46.743 41.1307 46.6963 41.252L42.7203 50.422C42.6923 50.4873 42.6503 50.5433 42.5943 50.59C42.5477 50.6367 42.473 50.66 42.3703 50.66H41.7123Z" fill="white"/>
</svg>
