<svg width="30" height="25" viewBox="0 0 30 25" fill="none" xmlns="http://www.w3.org/2000/svg">
<path d="M1 24H29" stroke="white" stroke-width="2" stroke-linecap="round" stroke-linejoin="round"/>
<path d="M25.5304 9.79154L15.9054 1.34135C15.387 0.886217 14.613 0.886216 14.0946 1.34135L4.46956 9.79154C4.17116 10.0535 4 10.432 4 10.8298V22.6204C4 23.3823 4.61561 24 5.375 24H10.875C11.6344 24 12.25 23.3823 12.25 22.6204V17.1019C12.25 16.3399 12.8656 15.7223 13.625 15.7223H16.375C17.1344 15.7223 17.75 16.3399 17.75 17.1019V22.6204C17.75 23.3823 18.3656 24 19.125 24H24.625C25.3844 24 26 23.3823 26 22.6204V10.8298C26 10.432 25.8288 10.0535 25.5304 9.79154Z" stroke="white" stroke-width="2" stroke-linecap="round" stroke-linejoin="round"/>
</svg>
