<svg width="65" height="52" viewBox="0 0 65 52" fill="none" xmlns="http://www.w3.org/2000/svg">
<path d="M36.3332 9.625C36.3332 14.3885 32.453 18.25 27.6666 18.25C25.9611 18.25 24.3707 17.7598 23.0299 16.9131L19 18.25L20.3433 14.2394C19.4926 12.905 19 11.3223 19 9.625C19 4.86154 22.8802 1 27.6666 1C32.453 1 36.3332 4.86154 36.3332 9.625Z" stroke="white" stroke-width="2" stroke-linecap="round" stroke-linejoin="round"/>
<path d="M28.1547 18.235C29.3402 21.5928 32.5543 24 36.3334 24C38.0389 24 39.6293 23.5098 40.97 22.6631L45 24L43.6567 19.9894L43.8618 19.6507C44.5861 18.3905 45 16.9308 45 15.375C45 10.6116 41.1198 6.75 36.3334 6.75L36.0085 6.75595L35.8454 6.76457" stroke="white" stroke-width="2" stroke-linecap="round" stroke-linejoin="round"/>
<path d="M1.54 48C1.44667 48 1.36733 47.972 1.302 47.916C1.246 47.8507 1.218 47.7713 1.218 47.678V38.536C1.218 38.4333 1.246 38.354 1.302 38.298C1.36733 38.2327 1.44667 38.2 1.54 38.2H2.24C2.352 38.2 2.436 38.228 2.492 38.284C2.548 38.34 2.58067 38.3867 2.59 38.424L5.558 44.08L8.54 38.424C8.55867 38.3867 8.59133 38.34 8.638 38.284C8.694 38.228 8.778 38.2 8.89 38.2H9.576C9.67867 38.2 9.758 38.2327 9.814 38.298C9.87933 38.354 9.912 38.4333 9.912 38.536V47.678C9.912 47.7713 9.87933 47.8507 9.814 47.916C9.758 47.972 9.67867 48 9.576 48H8.89C8.79667 48 8.71733 47.972 8.652 47.916C8.596 47.8507 8.568 47.7713 8.568 47.678V40.79L6.23 45.354C6.19267 45.4473 6.13667 45.522 6.062 45.578C5.98733 45.6247 5.894 45.648 5.782 45.648H5.348C5.22667 45.648 5.12867 45.6247 5.054 45.578C4.98867 45.522 4.93267 45.4473 4.886 45.354L2.548 40.79V47.678C2.548 47.7713 2.51533 47.8507 2.45 47.916C2.394 47.972 2.31933 48 2.226 48H1.54ZM15.0492 48.14C14.0879 48.14 13.3226 47.846 12.7532 47.258C12.1839 46.6607 11.8712 45.8487 11.8152 44.822C11.8059 44.7007 11.8012 44.5467 11.8012 44.36C11.8012 44.164 11.8059 44.0053 11.8152 43.884C11.8526 43.2213 12.0066 42.6427 12.2772 42.148C12.5479 41.644 12.9166 41.2567 13.3832 40.986C13.8592 40.7153 14.4146 40.58 15.0492 40.58C15.7586 40.58 16.3512 40.7293 16.8272 41.028C17.3126 41.3267 17.6812 41.7513 17.9332 42.302C18.1852 42.8527 18.3112 43.4967 18.3112 44.234V44.472C18.3112 44.5747 18.2786 44.654 18.2132 44.71C18.1572 44.766 18.0826 44.794 17.9892 44.794H13.1452C13.1452 44.8033 13.1452 44.822 13.1452 44.85C13.1452 44.878 13.1452 44.9013 13.1452 44.92C13.1639 45.3027 13.2479 45.662 13.3972 45.998C13.5466 46.3247 13.7612 46.5907 14.0412 46.796C14.3212 47.0013 14.6572 47.104 15.0492 47.104C15.3852 47.104 15.6652 47.0527 15.8892 46.95C16.1132 46.8473 16.2952 46.7353 16.4352 46.614C16.5752 46.4833 16.6686 46.3853 16.7152 46.32C16.7992 46.1987 16.8646 46.1287 16.9112 46.11C16.9579 46.082 17.0326 46.068 17.1352 46.068H17.8072C17.9006 46.068 17.9752 46.096 18.0312 46.152C18.0966 46.1987 18.1246 46.2687 18.1152 46.362C18.1059 46.502 18.0312 46.6747 17.8912 46.88C17.7512 47.076 17.5506 47.272 17.2892 47.468C17.0279 47.664 16.7106 47.8273 16.3372 47.958C15.9639 48.0793 15.5346 48.14 15.0492 48.14ZM13.1452 43.828H16.9812V43.786C16.9812 43.366 16.9019 42.9927 16.7432 42.666C16.5939 42.3393 16.3746 42.0827 16.0852 41.896C15.7959 41.7 15.4506 41.602 15.0492 41.602C14.6479 41.602 14.3026 41.7 14.0132 41.896C13.7332 42.0827 13.5186 42.3393 13.3692 42.666C13.2199 42.9927 13.1452 43.366 13.1452 43.786V43.828ZM22.5052 48.14C21.9826 48.14 21.5346 48.0747 21.1612 47.944C20.7879 47.8133 20.4846 47.6547 20.2512 47.468C20.0179 47.2813 19.8406 47.0947 19.7192 46.908C19.6072 46.7213 19.5466 46.572 19.5372 46.46C19.5279 46.3573 19.5606 46.278 19.6352 46.222C19.7099 46.166 19.7846 46.138 19.8592 46.138H20.4752C20.5312 46.138 20.5732 46.1473 20.6012 46.166C20.6386 46.1753 20.6852 46.2127 20.7412 46.278C20.8626 46.4087 20.9979 46.5393 21.1472 46.67C21.2966 46.8007 21.4786 46.908 21.6932 46.992C21.9172 47.076 22.1926 47.118 22.5192 47.118C22.9952 47.118 23.3872 47.0293 23.6952 46.852C24.0032 46.6653 24.1572 46.3947 24.1572 46.04C24.1572 45.8067 24.0919 45.62 23.9612 45.48C23.8399 45.34 23.6159 45.214 23.2892 45.102C22.9719 44.99 22.5332 44.8733 21.9732 44.752C21.4132 44.6213 20.9699 44.4627 20.6432 44.276C20.3166 44.08 20.0832 43.8513 19.9432 43.59C19.8032 43.3193 19.7332 43.016 19.7332 42.68C19.7332 42.3347 19.8359 42.0033 20.0412 41.686C20.2466 41.3593 20.5452 41.0933 20.9372 40.888C21.3386 40.6827 21.8379 40.58 22.4352 40.58C22.9206 40.58 23.3359 40.6407 23.6812 40.762C24.0266 40.8833 24.3112 41.0373 24.5352 41.224C24.7592 41.4013 24.9272 41.5787 25.0392 41.756C25.1512 41.9333 25.2119 42.0827 25.2212 42.204C25.2306 42.2973 25.2026 42.3767 25.1372 42.442C25.0719 42.498 24.9972 42.526 24.9132 42.526H24.3252C24.2599 42.526 24.2039 42.512 24.1572 42.484C24.1199 42.456 24.0826 42.4233 24.0452 42.386C23.9519 42.2647 23.8399 42.1433 23.7092 42.022C23.5879 41.9007 23.4246 41.8027 23.2192 41.728C23.0232 41.644 22.7619 41.602 22.4352 41.602C21.9686 41.602 21.6186 41.7 21.3852 41.896C21.1519 42.092 21.0352 42.3393 21.0352 42.638C21.0352 42.8153 21.0866 42.974 21.1892 43.114C21.2919 43.254 21.4879 43.38 21.7772 43.492C22.0666 43.604 22.4959 43.7253 23.0652 43.856C23.6812 43.9773 24.1666 44.1407 24.5212 44.346C24.8759 44.5513 25.1279 44.7893 25.2772 45.06C25.4266 45.3307 25.5012 45.6433 25.5012 45.998C25.5012 46.39 25.3846 46.7493 25.1512 47.076C24.9272 47.4027 24.5912 47.664 24.1432 47.86C23.7046 48.0467 23.1586 48.14 22.5052 48.14ZM29.6419 48.14C29.1193 48.14 28.6713 48.0747 28.2979 47.944C27.9246 47.8133 27.6213 47.6547 27.3879 47.468C27.1546 47.2813 26.9773 47.0947 26.8559 46.908C26.7439 46.7213 26.6833 46.572 26.6739 46.46C26.6646 46.3573 26.6973 46.278 26.7719 46.222C26.8466 46.166 26.9213 46.138 26.9959 46.138H27.6119C27.6679 46.138 27.7099 46.1473 27.7379 46.166C27.7753 46.1753 27.8219 46.2127 27.8779 46.278C27.9993 46.4087 28.1346 46.5393 28.2839 46.67C28.4333 46.8007 28.6153 46.908 28.8299 46.992C29.0539 47.076 29.3293 47.118 29.6559 47.118C30.1319 47.118 30.5239 47.0293 30.8319 46.852C31.1399 46.6653 31.2939 46.3947 31.2939 46.04C31.2939 45.8067 31.2286 45.62 31.0979 45.48C30.9766 45.34 30.7526 45.214 30.4259 45.102C30.1086 44.99 29.6699 44.8733 29.1099 44.752C28.5499 44.6213 28.1066 44.4627 27.7799 44.276C27.4533 44.08 27.2199 43.8513 27.0799 43.59C26.9399 43.3193 26.8699 43.016 26.8699 42.68C26.8699 42.3347 26.9726 42.0033 27.1779 41.686C27.3833 41.3593 27.6819 41.0933 28.0739 40.888C28.4753 40.6827 28.9746 40.58 29.5719 40.58C30.0573 40.58 30.4726 40.6407 30.8179 40.762C31.1633 40.8833 31.4479 41.0373 31.6719 41.224C31.8959 41.4013 32.0639 41.5787 32.1759 41.756C32.2879 41.9333 32.3486 42.0827 32.3579 42.204C32.3673 42.2973 32.3393 42.3767 32.2739 42.442C32.2086 42.498 32.1339 42.526 32.0499 42.526H31.4619C31.3966 42.526 31.3406 42.512 31.2939 42.484C31.2566 42.456 31.2193 42.4233 31.1819 42.386C31.0886 42.2647 30.9766 42.1433 30.8459 42.022C30.7246 41.9007 30.5613 41.8027 30.3559 41.728C30.1599 41.644 29.8986 41.602 29.5719 41.602C29.1053 41.602 28.7553 41.7 28.5219 41.896C28.2886 42.092 28.1719 42.3393 28.1719 42.638C28.1719 42.8153 28.2233 42.974 28.3259 43.114C28.4286 43.254 28.6246 43.38 28.9139 43.492C29.2033 43.604 29.6326 43.7253 30.2019 43.856C30.8179 43.9773 31.3033 44.1407 31.6579 44.346C32.0126 44.5513 32.2646 44.7893 32.4139 45.06C32.5633 45.3307 32.6379 45.6433 32.6379 45.998C32.6379 46.39 32.5213 46.7493 32.2879 47.076C32.0639 47.4027 31.7279 47.664 31.2799 47.86C30.8413 48.0467 30.2953 48.14 29.6419 48.14ZM36.2887 48.14C35.822 48.14 35.3973 48.0467 35.0147 47.86C34.632 47.6733 34.324 47.4213 34.0907 47.104C33.8573 46.7867 33.7407 46.4273 33.7407 46.026C33.7407 45.382 34.002 44.8687 34.5247 44.486C35.0473 44.1033 35.7287 43.8513 36.5687 43.73L38.6547 43.436V43.03C38.6547 42.582 38.524 42.232 38.2627 41.98C38.0107 41.728 37.5953 41.602 37.0167 41.602C36.5967 41.602 36.256 41.686 35.9947 41.854C35.7427 42.022 35.5653 42.2367 35.4627 42.498C35.4067 42.638 35.3087 42.708 35.1687 42.708H34.5387C34.436 42.708 34.3567 42.68 34.3007 42.624C34.254 42.5587 34.2307 42.484 34.2307 42.4C34.2307 42.26 34.282 42.0873 34.3847 41.882C34.4967 41.6767 34.6647 41.476 34.8887 41.28C35.1127 41.084 35.3973 40.9207 35.7427 40.79C36.0973 40.65 36.5267 40.58 37.0307 40.58C37.5907 40.58 38.062 40.6547 38.4447 40.804C38.8273 40.944 39.126 41.1353 39.3407 41.378C39.5647 41.6207 39.7233 41.896 39.8167 42.204C39.9193 42.512 39.9707 42.8247 39.9707 43.142V47.678C39.9707 47.7713 39.938 47.8507 39.8727 47.916C39.8167 47.972 39.742 48 39.6487 48H39.0047C38.902 48 38.8227 47.972 38.7667 47.916C38.7107 47.8507 38.6827 47.7713 38.6827 47.678V47.076C38.5613 47.244 38.398 47.412 38.1927 47.58C37.9873 47.7387 37.7307 47.874 37.4227 47.986C37.1147 48.0887 36.7367 48.14 36.2887 48.14ZM36.5827 47.09C36.9653 47.09 37.3153 47.0107 37.6327 46.852C37.95 46.684 38.1973 46.4273 38.3747 46.082C38.5613 45.7367 38.6547 45.3027 38.6547 44.78V44.388L37.0307 44.626C36.368 44.7193 35.8687 44.878 35.5327 45.102C35.1967 45.3167 35.0287 45.592 35.0287 45.928C35.0287 46.1893 35.1033 46.4087 35.2527 46.586C35.4113 46.754 35.6073 46.88 35.8407 46.964C36.0833 47.048 36.3307 47.09 36.5827 47.09ZM44.9653 51.08C44.3306 51.08 43.8079 50.996 43.3973 50.828C42.9959 50.66 42.6786 50.4547 42.4453 50.212C42.2213 49.9787 42.0579 49.7407 41.9553 49.498C41.8619 49.2647 41.8106 49.078 41.8013 48.938C41.7919 48.8447 41.8199 48.7653 41.8853 48.7C41.9599 48.6347 42.0393 48.602 42.1233 48.602H42.7953C42.8793 48.602 42.9493 48.6207 43.0053 48.658C43.0613 48.6953 43.1079 48.7747 43.1453 48.896C43.2013 49.036 43.2853 49.19 43.3973 49.358C43.5093 49.5353 43.6819 49.6847 43.9153 49.806C44.1486 49.9367 44.4753 50.002 44.8953 50.002C45.3339 50.002 45.7026 49.9413 46.0013 49.82C46.2999 49.708 46.5239 49.5027 46.6733 49.204C46.8319 48.9147 46.9113 48.5133 46.9113 48V47.048C46.6873 47.3373 46.3933 47.58 46.0293 47.776C45.6653 47.9627 45.2079 48.056 44.6573 48.056C44.1346 48.056 43.6866 47.9673 43.3133 47.79C42.9399 47.6033 42.6319 47.356 42.3893 47.048C42.1559 46.7307 41.9786 46.3713 41.8573 45.97C41.7453 45.5687 41.6799 45.1487 41.6613 44.71C41.6519 44.4487 41.6519 44.192 41.6613 43.94C41.6799 43.5013 41.7453 43.0813 41.8573 42.68C41.9786 42.2787 42.1559 41.9193 42.3893 41.602C42.6319 41.2847 42.9399 41.0373 43.3133 40.86C43.6866 40.6733 44.1346 40.58 44.6573 40.58C45.2173 40.58 45.6793 40.6873 46.0433 40.902C46.4166 41.1073 46.7199 41.3593 46.9533 41.658V41.056C46.9533 40.9627 46.9813 40.8833 47.0373 40.818C47.1026 40.7527 47.1819 40.72 47.2753 40.72H47.9193C48.0126 40.72 48.0919 40.7527 48.1573 40.818C48.2226 40.8833 48.2553 40.9627 48.2553 41.056V47.846C48.2553 48.4713 48.1479 49.0267 47.9333 49.512C47.7279 49.9973 47.3826 50.38 46.8973 50.66C46.4213 50.94 45.7773 51.08 44.9653 51.08ZM44.9373 46.936C45.4039 46.936 45.7773 46.8287 46.0573 46.614C46.3466 46.3993 46.5566 46.1287 46.6873 45.802C46.8273 45.4753 46.9019 45.144 46.9113 44.808C46.9206 44.6773 46.9253 44.5187 46.9253 44.332C46.9253 44.136 46.9206 43.9727 46.9113 43.842C46.9019 43.506 46.8273 43.1747 46.6873 42.848C46.5566 42.5213 46.3466 42.2507 46.0573 42.036C45.7773 41.8213 45.4039 41.714 44.9373 41.714C44.4706 41.714 44.0973 41.8213 43.8173 42.036C43.5373 42.2413 43.3366 42.5167 43.2153 42.862C43.0939 43.198 43.0239 43.562 43.0053 43.954C42.9959 44.1967 42.9959 44.444 43.0053 44.696C43.0239 45.088 43.0939 45.4567 43.2153 45.802C43.3366 46.138 43.5373 46.4133 43.8173 46.628C44.0973 46.8333 44.4706 46.936 44.9373 46.936ZM53.2348 48.14C52.2734 48.14 51.5081 47.846 50.9388 47.258C50.3694 46.6607 50.0568 45.8487 50.0008 44.822C49.9914 44.7007 49.9868 44.5467 49.9868 44.36C49.9868 44.164 49.9914 44.0053 50.0008 43.884C50.0381 43.2213 50.1921 42.6427 50.4628 42.148C50.7334 41.644 51.1021 41.2567 51.5688 40.986C52.0448 40.7153 52.6001 40.58 53.2348 40.58C53.9441 40.58 54.5368 40.7293 55.0128 41.028C55.4981 41.3267 55.8668 41.7513 56.1188 42.302C56.3708 42.8527 56.4968 43.4967 56.4968 44.234V44.472C56.4968 44.5747 56.4641 44.654 56.3988 44.71C56.3428 44.766 56.2681 44.794 56.1748 44.794H51.3308C51.3308 44.8033 51.3308 44.822 51.3308 44.85C51.3308 44.878 51.3308 44.9013 51.3308 44.92C51.3494 45.3027 51.4334 45.662 51.5828 45.998C51.7321 46.3247 51.9468 46.5907 52.2268 46.796C52.5068 47.0013 52.8428 47.104 53.2348 47.104C53.5708 47.104 53.8508 47.0527 54.0748 46.95C54.2988 46.8473 54.4808 46.7353 54.6208 46.614C54.7608 46.4833 54.8541 46.3853 54.9008 46.32C54.9848 46.1987 55.0501 46.1287 55.0968 46.11C55.1434 46.082 55.2181 46.068 55.3208 46.068H55.9928C56.0861 46.068 56.1608 46.096 56.2168 46.152C56.2821 46.1987 56.3101 46.2687 56.3008 46.362C56.2914 46.502 56.2168 46.6747 56.0768 46.88C55.9368 47.076 55.7361 47.272 55.4748 47.468C55.2134 47.664 54.8961 47.8273 54.5228 47.958C54.1494 48.0793 53.7201 48.14 53.2348 48.14ZM51.3308 43.828H55.1668V43.786C55.1668 43.366 55.0874 42.9927 54.9288 42.666C54.7794 42.3393 54.5601 42.0827 54.2708 41.896C53.9814 41.7 53.6361 41.602 53.2348 41.602C52.8334 41.602 52.4881 41.7 52.1988 41.896C51.9188 42.0827 51.7041 42.3393 51.5548 42.666C51.4054 42.9927 51.3308 43.366 51.3308 43.786V43.828ZM60.6908 48.14C60.1681 48.14 59.7201 48.0747 59.3468 47.944C58.9734 47.8133 58.6701 47.6547 58.4368 47.468C58.2034 47.2813 58.0261 47.0947 57.9048 46.908C57.7928 46.7213 57.7321 46.572 57.7228 46.46C57.7134 46.3573 57.7461 46.278 57.8208 46.222C57.8954 46.166 57.9701 46.138 58.0448 46.138H58.6608C58.7168 46.138 58.7588 46.1473 58.7868 46.166C58.8241 46.1753 58.8708 46.2127 58.9268 46.278C59.0481 46.4087 59.1834 46.5393 59.3328 46.67C59.4821 46.8007 59.6641 46.908 59.8788 46.992C60.1028 47.076 60.3781 47.118 60.7048 47.118C61.1808 47.118 61.5728 47.0293 61.8808 46.852C62.1888 46.6653 62.3428 46.3947 62.3428 46.04C62.3428 45.8067 62.2774 45.62 62.1468 45.48C62.0254 45.34 61.8014 45.214 61.4748 45.102C61.1574 44.99 60.7188 44.8733 60.1588 44.752C59.5988 44.6213 59.1554 44.4627 58.8288 44.276C58.5021 44.08 58.2688 43.8513 58.1288 43.59C57.9888 43.3193 57.9188 43.016 57.9188 42.68C57.9188 42.3347 58.0214 42.0033 58.2268 41.686C58.4321 41.3593 58.7308 41.0933 59.1228 40.888C59.5241 40.6827 60.0234 40.58 60.6208 40.58C61.1061 40.58 61.5214 40.6407 61.8668 40.762C62.2121 40.8833 62.4968 41.0373 62.7208 41.224C62.9448 41.4013 63.1128 41.5787 63.2248 41.756C63.3368 41.9333 63.3974 42.0827 63.4068 42.204C63.4161 42.2973 63.3881 42.3767 63.3228 42.442C63.2574 42.498 63.1828 42.526 63.0988 42.526H62.5108C62.4454 42.526 62.3894 42.512 62.3428 42.484C62.3054 42.456 62.2681 42.4233 62.2308 42.386C62.1374 42.2647 62.0254 42.1433 61.8948 42.022C61.7734 41.9007 61.6101 41.8027 61.4048 41.728C61.2088 41.644 60.9474 41.602 60.6208 41.602C60.1541 41.602 59.8041 41.7 59.5708 41.896C59.3374 42.092 59.2208 42.3393 59.2208 42.638C59.2208 42.8153 59.2721 42.974 59.3748 43.114C59.4774 43.254 59.6734 43.38 59.9628 43.492C60.2521 43.604 60.6814 43.7253 61.2508 43.856C61.8668 43.9773 62.3521 44.1407 62.7068 44.346C63.0614 44.5513 63.3134 44.7893 63.4628 45.06C63.6121 45.3307 63.6868 45.6433 63.6868 45.998C63.6868 46.39 63.5701 46.7493 63.3368 47.076C63.1128 47.4027 62.7768 47.664 62.3288 47.86C61.8901 48.0467 61.3441 48.14 60.6908 48.14Z" fill="white"/>
</svg>
