<?xml version="1.0" encoding="utf-8"?>
<!-- Generator: Adobe Illustrator 26.0.1, SVG Export Plug-In . SVG Version: 6.00 Build 0)  -->
<svg version="1.1" id="Layer_1" xmlns="http://www.w3.org/2000/svg" xmlns:xlink="http://www.w3.org/1999/xlink" x="0px" y="0px"
	 viewBox="0 0 333 166" style="enable-background:new 0 0 333 166;" xml:space="preserve">
<style type="text/css">
	.st0{fill:url(#SVGID_1_);fill-opacity:0.2;}
	.st1{fill:none;stroke:#F08A4B;stroke-width:4;stroke-linecap:round;}
</style>
<g>
	
		<linearGradient id="SVGID_1_" gradientUnits="userSpaceOnUse" x1="166.5" y1="237.1396" x2="166.5" y2="127.735" gradientTransform="matrix(1 0 0 -1 0 264)">
		<stop  offset="0" style="stop-color:#FCFCFC;stop-opacity:1.264880e-02"/>
		<stop  offset="1" style="stop-color:#F08A4B;stop-opacity:0.8"/>
	</linearGradient>
	<path class="st0" d="M57.2,82.5c-29-6.5-36,26.5-48.5,58.6c0,0,312,0,315.5-4.8c3.5-4.8-41.5-74.5-81-74.5s6.7,4.3-31.5,4.3
		s74-1.9,18.5-3.8c-55.5-2-84.5,64.8-127,49.8S86.2,89,57.2,82.5z"/>
	<path class="st1" d="M8.7,137c10.5-19,23.5-64,50.5-54s14.2,31,56.5,31c42.3,0,59.2-50,113.5-50s68,19,95,73"/>
	<path d="M24.5,159c-0.1,0-0.2,0-0.2-0.1c-0.1-0.1-0.1-0.1-0.1-0.2v-7.8l-2.3,1.8c-0.1,0.1-0.2,0.1-0.2,0.1s-0.2-0.1-0.2-0.1
		l-0.4-0.5c-0.1-0.1-0.1-0.2-0.1-0.3c0-0.1,0.1-0.2,0.1-0.2l3.1-2.4c0.1,0,0.1-0.1,0.2-0.1s0.1,0,0.2,0h0.7c0.1,0,0.2,0,0.2,0.1
		c0.1,0.1,0.1,0.1,0.1,0.2v9.2c0,0.1,0,0.2-0.1,0.2c-0.1,0.1-0.1,0.1-0.2,0.1H24.5z"/>
	<path d="M98.2,159.1c-0.5,0-1-0.1-1.5-0.2c-0.4-0.1-0.8-0.3-1.2-0.6c-0.3-0.3-0.6-0.6-0.7-0.9s-0.3-0.8-0.3-1.2
		c0-0.6,0.1-1.1,0.4-1.5c0.3-0.4,0.6-0.7,1.1-0.9c-0.4-0.2-0.6-0.5-0.9-0.8s-0.3-0.8-0.3-1.2c0-0.6,0.1-1,0.4-1.4
		c0.3-0.4,0.7-0.7,1.2-0.9c0.5-0.2,1.1-0.3,1.8-0.3c0.7,0,1.2,0.1,1.7,0.3c0.5,0.2,0.9,0.5,1.2,0.9c0.3,0.4,0.4,0.9,0.4,1.4
		c0,0.5-0.1,0.9-0.3,1.2c-0.2,0.3-0.5,0.6-0.8,0.8c0.5,0.2,0.8,0.5,1.1,0.9c0.3,0.4,0.4,0.9,0.4,1.5c0,0.6-0.2,1.1-0.5,1.6
		c-0.3,0.4-0.7,0.8-1.3,1C99.5,159,98.9,159.1,98.2,159.1z M98.2,158c0.4,0,0.8-0.1,1.2-0.2c0.3-0.1,0.6-0.4,0.8-0.6
		c0.2-0.3,0.3-0.6,0.3-1c0-0.4-0.1-0.7-0.3-1c-0.2-0.3-0.5-0.5-0.8-0.6c-0.3-0.1-0.7-0.2-1.2-0.2s-0.8,0.1-1.2,0.2
		c-0.3,0.1-0.6,0.3-0.8,0.6c-0.2,0.3-0.3,0.6-0.3,1c0,0.4,0.1,0.7,0.3,1c0.2,0.3,0.5,0.5,0.8,0.6C97.3,157.9,97.7,158,98.2,158z
		 M98.2,153.3c0.4,0,0.7-0.1,1-0.2c0.3-0.1,0.6-0.3,0.7-0.5c0.2-0.2,0.3-0.5,0.3-0.8c0-0.3-0.1-0.6-0.3-0.8
		c-0.2-0.2-0.4-0.4-0.7-0.5c-0.3-0.1-0.6-0.2-1-0.2s-0.7,0.1-1,0.2c-0.3,0.1-0.5,0.3-0.7,0.5s-0.3,0.5-0.3,0.8
		c0,0.3,0.1,0.6,0.3,0.8c0.2,0.2,0.4,0.4,0.7,0.5C97.4,153.2,97.8,153.3,98.2,153.3z"/>
	<path d="M167.9,159c-0.1,0-0.2,0-0.2-0.1c-0.1-0.1-0.1-0.1-0.1-0.2v-7.8l-2.3,1.8c-0.1,0.1-0.2,0.1-0.2,0.1s-0.2-0.1-0.2-0.1
		l-0.4-0.5c-0.1-0.1-0.1-0.2-0.1-0.3c0-0.1,0.1-0.2,0.1-0.2l3.1-2.4c0.1,0,0.1-0.1,0.2-0.1s0.1,0,0.2,0h0.7c0.1,0,0.2,0,0.2,0.1
		c0.1,0.1,0.1,0.1,0.1,0.2v9.2c0,0.1,0,0.2-0.1,0.2c-0.1,0.1-0.1,0.1-0.2,0.1H167.9z M174.1,159.1c-0.7,0-1.4-0.1-1.9-0.4
		c-0.5-0.3-0.9-0.6-1.2-1c-0.3-0.4-0.4-0.8-0.4-1.3c0-0.1,0-0.1,0.1-0.2s0.1-0.1,0.2-0.1h0.8c0.1,0,0.2,0,0.2,0.1s0.1,0.1,0.2,0.2
		c0.1,0.3,0.2,0.6,0.4,0.9c0.2,0.2,0.5,0.4,0.7,0.5c0.3,0.1,0.6,0.1,0.9,0.1c0.4,0,0.8-0.1,1.1-0.2c0.3-0.2,0.6-0.4,0.8-0.7
		c0.2-0.3,0.3-0.7,0.3-1.2c0-0.4-0.1-0.8-0.3-1.1c-0.2-0.3-0.4-0.5-0.8-0.7c-0.3-0.2-0.7-0.3-1.1-0.3c-0.3,0-0.6,0-0.8,0.1
		s-0.4,0.2-0.5,0.3c-0.1,0.1-0.3,0.2-0.4,0.3c-0.1,0.1-0.2,0.1-0.4,0.1h-0.7c-0.1,0-0.2,0-0.2-0.1c-0.1-0.1-0.1-0.1-0.1-0.2l0.4-4.7
		c0-0.1,0-0.2,0.1-0.3c0.1-0.1,0.1-0.1,0.3-0.1h4.9c0.1,0,0.2,0,0.2,0.1c0.1,0.1,0.1,0.1,0.1,0.2v0.5c0,0.1,0,0.2-0.1,0.2
		c-0.1,0.1-0.1,0.1-0.2,0.1h-4l-0.3,2.8c0.1-0.1,0.3-0.2,0.6-0.3c0.3-0.1,0.7-0.2,1.2-0.2c0.5,0,0.9,0.1,1.3,0.2
		c0.4,0.1,0.8,0.3,1.1,0.6s0.6,0.6,0.7,1c0.2,0.4,0.3,0.8,0.3,1.3c0,0.7-0.2,1.3-0.5,1.8c-0.3,0.5-0.7,0.9-1.3,1.1
		C175.4,159,174.8,159.1,174.1,159.1z"/>
	<path d="M235.9,159c-0.1,0-0.2,0-0.2-0.1c-0.1-0.1-0.1-0.1-0.1-0.2v-0.4c0-0.1,0-0.2,0.1-0.3c0-0.1,0.1-0.2,0.3-0.3l3-3
		c0.5-0.4,0.8-0.7,1.1-1c0.3-0.3,0.5-0.6,0.6-0.8c0.1-0.3,0.2-0.5,0.2-0.8c0-0.5-0.1-1-0.4-1.3c-0.3-0.3-0.7-0.5-1.3-0.5
		c-0.4,0-0.7,0.1-1,0.2c-0.3,0.1-0.5,0.4-0.6,0.6c-0.1,0.3-0.2,0.6-0.3,0.9c0,0.1-0.1,0.2-0.2,0.3c-0.1,0-0.1,0.1-0.2,0.1h-0.7
		c-0.1,0-0.2,0-0.2-0.1c-0.1-0.1-0.1-0.1-0.1-0.2c0-0.4,0.1-0.7,0.2-1.1c0.1-0.4,0.3-0.7,0.6-1c0.3-0.3,0.6-0.5,1-0.7
		c0.4-0.2,0.9-0.3,1.4-0.3c0.7,0,1.3,0.1,1.8,0.4c0.5,0.3,0.8,0.6,1.1,1.1s0.3,0.9,0.3,1.4c0,0.4-0.1,0.8-0.2,1.1
		c-0.1,0.3-0.3,0.7-0.6,1c-0.3,0.3-0.6,0.6-1,1l-2.7,2.7h4.4c0.1,0,0.2,0,0.2,0.1c0.1,0.1,0.1,0.1,0.1,0.2v0.6c0,0.1,0,0.2-0.1,0.2
		c-0.1,0.1-0.1,0.1-0.2,0.1H235.9z M244.2,159c-0.1,0-0.2,0-0.2-0.1c-0.1-0.1-0.1-0.1-0.1-0.2v-0.4c0-0.1,0-0.2,0.1-0.3
		s0.1-0.2,0.3-0.3l3-3c0.5-0.4,0.8-0.7,1.1-1c0.3-0.3,0.5-0.6,0.6-0.8c0.1-0.3,0.2-0.5,0.2-0.8c0-0.5-0.1-1-0.4-1.3
		c-0.3-0.3-0.7-0.5-1.3-0.5c-0.4,0-0.7,0.1-1,0.2c-0.3,0.1-0.5,0.4-0.6,0.6c-0.1,0.3-0.2,0.6-0.3,0.9c0,0.1-0.1,0.2-0.2,0.3
		c-0.1,0-0.1,0.1-0.2,0.1h-0.7c-0.1,0-0.2,0-0.2-0.1c-0.1-0.1-0.1-0.1-0.1-0.2c0-0.4,0.1-0.7,0.2-1.1c0.1-0.4,0.3-0.7,0.6-1
		c0.3-0.3,0.6-0.5,1-0.7c0.4-0.2,0.9-0.3,1.4-0.3c0.7,0,1.3,0.1,1.8,0.4c0.5,0.3,0.8,0.6,1.1,1.1s0.3,0.9,0.3,1.4
		c0,0.4-0.1,0.8-0.2,1.1c-0.1,0.3-0.3,0.7-0.6,1c-0.3,0.3-0.6,0.6-1,1l-2.7,2.7h4.4c0.1,0,0.2,0,0.2,0.1c0.1,0.1,0.1,0.1,0.1,0.2
		v0.6c0,0.1,0,0.2-0.1,0.2c-0.1,0.1-0.1,0.1-0.2,0.1H244.2z"/>
	<path d="M314.3,159.1c-0.6,0-1.1-0.1-1.5-0.2c-0.4-0.1-0.8-0.3-1.1-0.6c-0.3-0.2-0.5-0.5-0.7-0.8c-0.2-0.3-0.2-0.6-0.2-0.9
		c0-0.1,0-0.1,0.1-0.2s0.1-0.1,0.2-0.1h0.7c0.1,0,0.2,0,0.2,0.1c0.1,0,0.1,0.1,0.2,0.2c0.1,0.3,0.3,0.6,0.5,0.8
		c0.2,0.2,0.5,0.3,0.8,0.4c0.3,0.1,0.6,0.1,0.9,0.1c0.6,0,1.2-0.2,1.6-0.5c0.4-0.3,0.6-0.8,0.6-1.4c0-0.6-0.2-1-0.5-1.3
		c-0.4-0.3-0.9-0.4-1.5-0.4H313c-0.1,0-0.2,0-0.2-0.1c-0.1-0.1-0.1-0.1-0.1-0.2v-0.4c0-0.1,0-0.2,0-0.2c0-0.1,0.1-0.1,0.1-0.2l2.7-3
		h-4.1c-0.1,0-0.2,0-0.2-0.1c-0.1-0.1-0.1-0.1-0.1-0.2v-0.5c0-0.1,0-0.2,0.1-0.2c0.1-0.1,0.1-0.1,0.2-0.1h5.6c0.1,0,0.2,0,0.2,0.1
		c0.1,0.1,0.1,0.1,0.1,0.2v0.5c0,0.1,0,0.1-0.1,0.2c0,0-0.1,0.1-0.1,0.1l-2.7,3l0.2,0c0.6,0,1.2,0.1,1.6,0.3
		c0.5,0.2,0.8,0.5,1.1,0.9c0.3,0.4,0.4,0.9,0.4,1.5c0,0.6-0.2,1.2-0.5,1.6c-0.3,0.4-0.7,0.8-1.3,1
		C315.5,159,314.9,159.1,314.3,159.1z M322.1,159c-0.1,0-0.2,0-0.2-0.1c-0.1-0.1-0.1-0.1-0.1-0.2v-7.8l-2.3,1.8
		c-0.1,0.1-0.2,0.1-0.2,0.1c-0.1,0-0.2-0.1-0.2-0.1l-0.4-0.5c-0.1-0.1-0.1-0.2-0.1-0.3c0-0.1,0.1-0.2,0.1-0.2l3.1-2.4
		c0.1,0,0.1-0.1,0.2-0.1s0.1,0,0.2,0h0.7c0.1,0,0.2,0,0.2,0.1c0.1,0.1,0.1,0.1,0.1,0.2v9.2c0,0.1,0,0.2-0.1,0.2
		c-0.1,0.1-0.1,0.1-0.2,0.1H322.1z"/>
</g>
</svg>
