<?xml version="1.0" encoding="utf-8"?>
<!-- Generator: Adobe Illustrator 26.0.1, SVG Export Plug-In . SVG Version: 6.00 Build 0)  -->
<svg version="1.1" xmlns="http://www.w3.org/2000/svg" xmlns:xlink="http://www.w3.org/1999/xlink" x="0px" y="0px"
	 viewBox="0 0 215.8 215.8" style="enable-background:new 0 0 215.8 215.8;" xml:space="preserve">
<style type="text/css">
	.st0{fill:#231F20;}
	.st1{fill:#F6C419;}
	.st2{fill:#F5333F;}
	.st3{fill:#FFFFFF;}
	.st4{fill:#58595B;}
	.st5{fill:#F7941D;}
	.st6{fill:#FFB71B;}
	.st7{fill:#6D6E71;}
	.st8{fill:none;stroke:#27AAE1;stroke-miterlimit:10;}
	.st9{fill:none;stroke:#94BDE5;stroke-width:0.5601;stroke-miterlimit:10;}
	.st10{fill:none;stroke:#94BDE5;stroke-width:0.5997;stroke-miterlimit:10;}
	.st11{fill:none;stroke:#94BDE5;stroke-width:0.5;stroke-miterlimit:10;}
</style>
<g id="Layer_3">
	<g id="black_logo_00000094614999846615945490000010875763205534520238_">
		<g>
			<path class="st6" d="M142.6,65.6c14.4,6.8-4.9,65.1-40.1,83.2c-0.9,0.5-2,0.4-2.8-0.2c-11.6-7.9-13.9-16.1-14.3-19.3
				c-1.3-12.9,13.2-43.3,32.1-44c2.7-0.3,3.7,0.2,3.9,2.5c1,10.6-12,13.3-11.7,24c11.9-0.3,19.9-20.7,21.1-27.5
				C131.7,78,132.8,61.6,142.6,65.6z"/>
			<path class="st2" d="M105.4,38.6l0.8-0.8c0.1-0.1,0.2-0.3,0.2-0.4c-0.6-6.8-4.1-11.3-6-13.2c-0.1-0.1-0.3-0.2-0.5-0.1
				c-1,0.2-3.1,0-6.6,3.8c-0.3,0.3-0.1,0.7,0.3,0.8c6.1,0.9,9.6,8,11,9.8C104.8,38.8,105.2,38.8,105.4,38.6z"/>
			<path class="st2" d="M105.3,48.7c-0.8,0.3-1.7,0.3-2.5-0.1c-25-11.8-36.2,6.4-34.2,23c0.9,7.4,9.4,23.5,13.9,31.5
				c0.8,1.4,2.8,1.5,3.7,0.1c8.8-13.3,17.1-28.7,34.4-23.9c1,0.3,2-0.3,2.1-1.3c1.9-10.1,3.3-21.2,11.6-20.7c1.3,0.1,2.4-1,2.2-2.3
				C135.5,45.5,124.4,41.8,105.3,48.7z M111,60.7c-0.1,0.1-0.2,0.2-0.4,0.2c-2.9-0.1-9.1-1.2-15.2-5.7c-0.1-0.1-0.2-0.2-0.2-0.4
				L95,53.7c0-0.3,0.2-0.5,0.6-0.5c2.5,0.4,10.9,3.4,15.9,0.2c0.3-0.2,0.8,0,0.8,0.4C113.2,58.8,111.5,59.9,111,60.7z"/>
		</g>
		<g id="wordmark_00000153666247129481776640000015118407098505580189_">
			<g>
				<path class="st4" d="M52.4,185.7c0-0.6-0.2-1.1-0.7-1.5c-0.5-0.4-1-0.7-1.7-1.1c-0.7-0.3-1.4-0.7-2.2-1
					c-0.8-0.3-1.6-0.8-2.2-1.3c-0.7-0.5-1.3-1.1-1.7-1.9c-0.5-0.7-0.7-1.7-0.7-2.8c0-1,0.2-1.9,0.5-2.6c0.3-0.7,0.8-1.3,1.4-1.8
					c0.6-0.5,1.3-0.8,2.2-1.1c0.8-0.2,1.8-0.4,2.8-0.4c1.2,0,2.3,0.1,3.4,0.3s1.9,0.5,2.6,0.9l-1.3,3.4c-0.4-0.3-1.1-0.5-1.9-0.7
					c-0.9-0.2-1.8-0.3-2.8-0.3c-0.9,0-1.6,0.2-2.1,0.6c-0.5,0.4-0.7,0.9-0.7,1.5c0,0.6,0.2,1.1,0.7,1.5c0.5,0.4,1,0.7,1.7,1.1
					c0.7,0.3,1.4,0.7,2.2,1c0.8,0.4,1.6,0.8,2.2,1.3c0.7,0.5,1.3,1.1,1.7,1.8c0.5,0.7,0.7,1.6,0.7,2.7c0,1.1-0.2,2-0.5,2.8
					c-0.4,0.8-0.9,1.4-1.5,2c-0.7,0.5-1.4,0.9-2.4,1.2c-0.9,0.3-1.9,0.4-3,0.4c-1.5,0-2.7-0.1-3.8-0.4c-1.1-0.3-1.9-0.5-2.4-0.8
					l1.3-3.4c0.2,0.1,0.5,0.2,0.8,0.4c0.3,0.1,0.7,0.3,1.2,0.4c0.4,0.1,0.9,0.2,1.4,0.3c0.5,0.1,1,0.1,1.5,0.1
					c1.2,0,2.1-0.2,2.7-0.6C52.1,187.2,52.4,186.5,52.4,185.7z"/>
				<path class="st4" d="M67.9,191.2v-8.3c0-1.2-0.2-2-0.5-2.6c-0.3-0.5-0.9-0.8-1.8-0.8c-0.6,0-1.2,0.2-1.8,0.7
					c-0.5,0.4-0.9,1-1.1,1.7v9.3h-3.8v-20.4h3.8v7.5h0.1c0.5-0.6,1-1.1,1.7-1.5c0.7-0.4,1.5-0.6,2.6-0.6c0.7,0,1.4,0.1,2,0.3
					c0.6,0.2,1,0.5,1.4,1c0.4,0.4,0.7,1.1,0.8,1.8c0.2,0.8,0.3,1.7,0.3,2.8v9.1H67.9z"/>
				<path class="st4" d="M74.7,177.5c0.8-0.3,1.7-0.6,2.8-0.8c1.1-0.2,2.2-0.3,3.4-0.3c1,0,1.9,0.1,2.5,0.4c0.7,0.2,1.2,0.6,1.6,1
					c0.4,0.4,0.7,1,0.8,1.6c0.2,0.6,0.2,1.3,0.2,2.1c0,0.9,0,1.7-0.1,2.6c-0.1,0.9-0.1,1.7-0.1,2.6c0,0.8,0,1.6,0.1,2.4
					c0.1,0.8,0.2,1.5,0.4,2.2h-3.1l-0.6-2h-0.1c-0.4,0.6-0.9,1.1-1.6,1.6c-0.7,0.4-1.6,0.7-2.7,0.7c-0.7,0-1.3-0.1-1.8-0.3
					c-0.5-0.2-1-0.5-1.4-0.9c-0.4-0.4-0.7-0.8-0.9-1.3c-0.2-0.5-0.3-1.1-0.3-1.7c0-0.9,0.2-1.6,0.6-2.3c0.4-0.6,1-1.1,1.7-1.5
					c0.7-0.4,1.6-0.6,2.7-0.8c1-0.1,2.2-0.2,3.5-0.1c0.1-1.1,0.1-1.9-0.2-2.3c-0.3-0.5-0.9-0.7-2-0.7c-0.8,0-1.6,0.1-2.4,0.2
					c-0.8,0.2-1.5,0.4-2.1,0.6L74.7,177.5z M79.5,188.3c0.8,0,1.4-0.2,1.8-0.5c0.4-0.3,0.8-0.7,1-1.1v-1.9c-0.6-0.1-1.2-0.1-1.7,0
					c-0.6,0-1,0.1-1.5,0.3c-0.4,0.1-0.8,0.3-1,0.6c-0.3,0.3-0.4,0.6-0.4,1c0,0.5,0.2,1,0.5,1.3C78.5,188.2,79,188.3,79.5,188.3z"/>
				<path class="st4" d="M97.3,180.2c-0.6-0.2-1.1-0.3-1.6-0.3c-0.7,0-1.2,0.2-1.7,0.5c-0.5,0.4-0.8,0.8-0.9,1.4v9.4h-3.8v-14.6h2.9
					l0.4,1.9h0.1c0.3-0.7,0.8-1.3,1.3-1.7c0.6-0.4,1.2-0.6,2-0.6c0.5,0,1.1,0.1,1.7,0.3L97.3,180.2z"/>
				<path class="st4" d="M111.2,190c-0.6,0.5-1.4,0.9-2.4,1.2c-1,0.3-2.1,0.5-3.2,0.5c-2.4,0-4.1-0.7-5.2-2.1
					c-1.1-1.4-1.6-3.3-1.6-5.6c0-2.6,0.6-4.5,1.8-5.8c1.2-1.3,2.9-1.9,5.2-1.9c0.7,0,1.5,0.1,2.2,0.3c0.7,0.2,1.3,0.5,1.9,1
					c0.5,0.4,1,1,1.3,1.8c0.3,0.8,0.5,1.7,0.5,2.8c0,0.4,0,0.8-0.1,1.3c0,0.5-0.1,1-0.2,1.5h-8.7c0.1,1.2,0.4,2.1,0.9,2.8
					c0.6,0.6,1.5,0.9,2.8,0.9c0.8,0,1.5-0.1,2.1-0.4c0.6-0.2,1.1-0.5,1.4-0.7L111.2,190z M105.8,179.3c-1,0-1.7,0.3-2.2,0.9
					c-0.5,0.6-0.8,1.4-0.9,2.4h5.4c0.1-1-0.1-1.9-0.5-2.4C107.2,179.5,106.6,179.3,105.8,179.3z"/>
				<path class="st6" d="M114.4,170.8h12.1v3.6h-8.1v5h7.5v3.6h-7.5v8.3h-4V170.8z"/>
				<path class="st6" d="M128.4,183.9c0-2.5,0.6-4.4,1.8-5.7c1.2-1.3,2.9-2,5.1-2c1.2,0,2.2,0.2,3,0.6c0.9,0.4,1.6,0.9,2.1,1.6
					c0.6,0.7,1,1.5,1.3,2.4c0.3,1,0.4,2,0.4,3.1c0,2.5-0.6,4.4-1.8,5.7c-1.2,1.3-2.9,2-5.1,2c-1.2,0-2.2-0.2-3-0.6
					c-0.9-0.4-1.6-0.9-2.1-1.6c-0.6-0.7-1-1.5-1.3-2.4C128.6,186.1,128.4,185.1,128.4,183.9z M132.4,183.9c0,0.6,0.1,1.2,0.2,1.8
					c0.1,0.5,0.3,1,0.5,1.4c0.2,0.4,0.5,0.7,0.9,0.9c0.4,0.2,0.8,0.3,1.4,0.3c1,0,1.7-0.4,2.2-1.1c0.5-0.7,0.7-1.9,0.7-3.4
					c0-1.3-0.2-2.4-0.7-3.3c-0.4-0.8-1.2-1.2-2.3-1.2c-0.9,0-1.7,0.3-2.2,1C132.6,181.2,132.4,182.3,132.4,183.9z"/>
				<path class="st6" d="M144.1,183.9c0-2.5,0.6-4.4,1.8-5.7c1.2-1.3,2.9-2,5.1-2c1.2,0,2.2,0.2,3,0.6c0.9,0.4,1.6,0.9,2.1,1.6
					c0.6,0.7,1,1.5,1.3,2.4c0.3,1,0.4,2,0.4,3.1c0,2.5-0.6,4.4-1.8,5.7c-1.2,1.3-2.9,2-5.1,2c-1.2,0-2.2-0.2-3-0.6
					c-0.9-0.4-1.6-0.9-2.1-1.6c-0.6-0.7-1-1.5-1.3-2.4C144.2,186.1,144.1,185.1,144.1,183.9z M148,183.9c0,0.6,0.1,1.2,0.2,1.8
					c0.1,0.5,0.3,1,0.5,1.4c0.2,0.4,0.5,0.7,0.9,0.9c0.4,0.2,0.8,0.3,1.4,0.3c1,0,1.7-0.4,2.2-1.1c0.5-0.7,0.7-1.9,0.7-3.4
					c0-1.3-0.2-2.4-0.7-3.3c-0.4-0.8-1.2-1.2-2.3-1.2c-0.9,0-1.7,0.3-2.2,1C148.3,181.2,148,182.3,148,183.9z"/>
				<path class="st6" d="M172.9,186.1c0,0.8,0,1.6,0,2.4c0,0.8,0.1,1.7,0.3,2.7h-2.7l-0.5-1.9h-0.1c-0.4,0.7-0.9,1.2-1.7,1.6
					c-0.7,0.4-1.6,0.6-2.6,0.6c-1.8,0-3.2-0.6-4.3-1.8c-1-1.2-1.5-3.1-1.5-5.7c0-2.5,0.6-4.4,1.7-5.8c1.1-1.4,2.8-2.1,5-2.1
					c0.6,0,1.1,0,1.5,0.1c0.4,0.1,0.8,0.2,1.2,0.3v-5.9h3.8V186.1z M166.4,188.4c0.7,0,1.3-0.2,1.7-0.5c0.4-0.4,0.7-0.9,0.9-1.6
					v-6.2c-0.3-0.2-0.6-0.4-0.9-0.5c-0.3-0.1-0.8-0.2-1.3-0.2c-1.1,0-1.9,0.4-2.4,1.1c-0.5,0.7-0.8,2-0.8,3.7c0,1.2,0.2,2.2,0.7,3
					C164.8,188,165.5,188.4,166.4,188.4z"/>
			</g>
		</g>
	</g>
</g>
<g id="guides">
</g>
</svg>
